<svg xmlns="http://www.w3.org/2000/svg" width="360" height="540"><g transform="translate(0 -512.36)"><rect width="359" height="539" x=".5" y="512.86" rx="29.94" ry="29.94" style="fill:#fff"/><path d="M30 542.36c-5.54 0-10 4.46-10 10v5h5v-5a4.99 4.99 0 1 1 10 0v5c0 1.13-.38 3.07-1 3.9-4.46 9.1-9.28 17.13-14 26.1v5h20v-10h-5v5h-9.5c4.49-7.91 8.22-15.57 12.5-23.6a11 11 0 0 0 2-6.4v-5c0-5.54-4.46-10-10-10m300 480c5.54 0 10-4.46 10-10v-5h-5v5a4.99 4.99 0 1 1-10 0v-5c0-1.13.38-3.06 1-3.9 4.46-9.1 9.28-17.13 14-26.1v-5h-20v10h5v-5h9.5c-4.49 7.92-8.22 15.57-12.5 23.6a11 11 0 0 0-2 6.4v5c0 5.54 4.46 10 10 10" style="fill:#f55;fill-opacity:1;stroke:none"/><path d="M180 557.36s6 15 13 25 17 20 17 20-10 10-17 20-13 25-13 25-6-15-13-25-17-20-17-20 10-10 17-20 13-25 13-25m0 360s6 15 13 25 17 20 17 20-10 10-17 20-13 25-13 25-6-15-13-25-17-20-17-20 10-10 17-20 13-25 13-25m-150-315s3 7.5 6.5 12.5 8.5 10 8.5 10-5 5-8.5 10-6.5 12.5-6.5 12.5-3-7.5-6.5-12.5-8.5-10-8.5-10 5-5 8.5-10 6.5-12.5 6.5-12.5m300 315s3 7.5 6.5 12.5 8.5 10 8.5 10-5 5-8.5 10-6.5 12.5-6.5 12.5-3-7.5-6.5-12.5-8.5-10-8.5-10 5-5 8.5-10 6.5-12.5 6.5-12.5" style="fill:#f55;stroke:none"/></g></svg>