<svg xmlns="http://www.w3.org/2000/svg" width="360" height="540"><g transform="translate(0 -512.36)"><rect width="359" height="539" x=".5" y="512.86" rx="29.94" ry="29.94" style="fill:#fff"/><path d="M30 542.36c-5.54 0-10 4.46-10 10v5h5v-5a4.99 4.99 0 1 1 10 0v5c0 1.13-.38 3.07-1 3.9-4.46 9.1-9.28 17.13-14 26.1v5h20v-10h-5v5h-9.5c4.49-7.91 8.22-15.57 12.5-23.6a11 11 0 0 0 2-6.4v-5c0-5.54-4.46-10-10-10m300 480c5.54 0 10-4.46 10-10v-5h-5v5a4.99 4.99 0 1 1-10 0v-5c0-1.13.38-3.06 1-3.9 4.46-9.1 9.28-17.13 14-26.1v-5h-20v10h5v-5h9.5c-4.49 7.92-8.22 15.57-12.5 23.6a11 11 0 0 0-2 6.4v5c0 5.54 4.46 10 10 10m-300.5-411c0-5.52-2.86-9-7-9s-7.5 4.48-7.5 10q.02.72 0 1.4c0 3.66 1.34 7.2 2.5 10.5 1.2 3.41 2.92 6.4 4.53 9.45 2.5 4.72 7.97 13.65 7.97 13.65s5.47-8.93 7.97-13.65c1.61-3.05 3.34-6.04 4.53-9.44 1.16-3.31 2.5-6.85 2.5-10.5v-1.4c0-5.53-3.36-10-7.5-10s-7 3.47-7 9c0 1-1 1-1 0m300 341.99c0 5.53-2.86 9-7 9s-7.5-4.47-7.5-10v-1.4c0-3.65 1.34-7.2 2.5-10.5 1.2-3.41 2.92-6.4 4.53-9.44 2.5-4.72 7.97-13.66 7.97-13.66s5.47 8.94 7.97 13.66c1.61 3.05 3.34 6.03 4.53 9.44 1.16 3.3 2.5 6.85 2.5 10.5v1.4c0 5.53-3.36 10-7.5 10s-7-3.47-7-9c0-1-1-1-1 0m-150.5-378c0-11.04-5.72-18-14-18s-15 8.96-15 20q.04 1.44 0 2.81c0 7.3 2.68 14.38 5 21 2.39 6.82 5.83 12.79 9.06 18.88 5 9.44 15.94 27.31 15.94 27.31s10.94-17.87 15.94-27.31c3.23-6.1 6.67-12.06 9.06-18.88 2.32-6.62 5-13.7 5-21q-.04-1.46 0-2.8c0-11.05-6.72-20-15-20s-14 6.95-14 18c0 2-2 2-2 0m0 413.99c0 11.05-5.72 18-14 18s-15-8.95-15-20q.04-1.43 0-2.81c0-7.3 2.68-14.38 5-21 2.39-6.81 5.83-12.78 9.06-18.88 5-9.43 15.94-27.3 15.94-27.3s10.94 17.87 15.94 27.3c3.23 6.1 6.67 12.07 9.06 18.88 2.32 6.62 5 13.7 5 21q-.04 1.46 0 2.81c0 11.05-6.72 20-15 20s-14-6.95-14-18c0-2-2-2-2 0" style="fill:#f55;fill-opacity:1;stroke:none"/></g></svg>