<svg xmlns="http://www.w3.org/2000/svg" width="360" height="540"><g transform="translate(0 -512.36)"><rect width="359" height="539" x=".5" y="512.86" rx="29.94" ry="29.94" style="fill:#fff"/><path d="M30 542.36c-5.54 0-10 4.46-10 10v5h5v-5a4.99 4.99 0 1 1 10 0v5c0 1.13-.38 3.07-1 3.9-4.46 9.1-9.28 17.13-14 26.1v5h20v-10h-5v5h-9.5c4.49-7.91 8.22-15.57 12.5-23.6a11 11 0 0 0 2-6.4v-5c0-5.54-4.46-10-10-10m300 480c5.54 0 10-4.46 10-10v-5h-5v5a4.99 4.99 0 1 1-10 0v-5c0-1.13.38-3.06 1-3.9 4.46-9.1 9.28-17.13 14-26.1v-5h-20v10h5v-5h9.5c-4.49 7.92-8.22 15.57-12.5 23.6a11 11 0 0 0-2 6.4v5c0 5.54 4.46 10 10 10m-297.5-392c.5 2 2.5 7 6 7 4.5 0 6.5-4 6.5-9 0-3.5-1.29-5.8-2.5-8.5-1.29-2.87-3.19-5.43-5-8-2.32-3.3-7.5-9.5-7.5-9.5s-5.18 6.2-7.5 9.5c-1.81 2.57-3.71 5.13-5 8-1.21 2.7-2.5 5-2.5 8.5 0 5 2 9 6.5 9 3.5 0 5.5-5 6-7 .5-.5.5 0 .5.5-.5 4-.5 5-1 8s-2 8.5-2 8.5c2.5-1 7.5-1 10 0 0 0-1.5-5.5-2-8.5s-.5-4-1-8c0-.5 0-1 .5-.5m300 304c.5-2 2.5-7 6-7 4.5 0 6.5 4 6.5 9 0 3.5-1.29 5.8-2.5 8.5-1.29 2.87-3.19 5.43-5 8-2.32 3.3-7.5 9.5-7.5 9.5s-5.18-6.2-7.5-9.5c-1.81-2.57-3.71-5.13-5-8-1.21-2.7-2.5-5-2.5-8.5 0-5 2-9 6.5-9 3.5 0 5.5 5 6 7 .5.5.5 0 .5-.5-.5-4-.5-5-1-8s-2-8.5-2-8.5c2.5 1 7.5 1 10 0 0 0-1.5 5.5-2 8.5s-.5 4-1 8c0 .5 0 1 .5.5m-147.5-321c1 4 5 14 12 14 9 0 13-8 13-18 0-7-2.58-11.61-5-17-2.58-5.73-6.38-10.86-10-16-4.65-6.6-15-19-15-19s-10.35 12.4-15 19c-3.62 5.14-7.42 10.27-10 16-2.42 5.39-5 10-5 17 0 10 4 18 13 18 7 0 11-10 12-14 1-1 1 0 1 1-1 8-1 10-2 16s-4 17-4 17c5-2 15-2 20 0 0 0-3-11-4-17s-1-8-2-16c0-1 0-2 1-1m0 338c1-4 5-14 12-14 9 0 13 8 13 18 0 7-2.58 11.61-5 17-2.58 5.74-6.38 10.86-10 16-4.65 6.6-15 19-15 19s-10.35-12.4-15-19c-3.62-5.14-7.42-10.26-10-16-2.42-5.39-5-10-5-17 0-10 4-18 13-18 7 0 11 10 12 14 1 1 1 0 1-1-1-8-1-10-2-16s-4-17-4-17c5 2 15 2 20 0 0 0-3 11-4 17s-1 8-2 16c0 1 0 2 1 1" style="fill:#000;fill-opacity:1;stroke:none"/></g></svg>