<svg xmlns="http://www.w3.org/2000/svg" width="360" height="540"><g transform="translate(0 -512.36)"><rect width="359" height="539" x=".5" y="512.86" rx="29.94" ry="29.94" style="fill:#fff"/><path d="M30 542.36c-5.54 0-10 4.46-10 10v5h5v-5a4.99 4.99 0 1 1 10 0v5c0 2.77-2.23 5-5 5h-5v5h5c2.77 0 5 2.23 5 5v10a4.99 4.99 0 1 1-10 0v-5h-5v5c0 5.54 4.46 10 10 10s10-4.46 10-10v-10c0-3-1.32-5.67-3.4-7.5a10 10 0 0 0 3.4-7.5v-5c0-5.54-4.46-10-10-10m300 480c5.54 0 10-4.46 10-10v-5h-5v5a4.99 4.99 0 1 1-10 0v-5c0-2.77 2.23-5 5-5h5v-5h-5c-2.77 0-5-2.23-5-5v-10a4.99 4.99 0 1 1 10 0v5h5v-5c0-5.54-4.46-10-10-10s-10 4.46-10 10v10c0 3 1.32 5.67 3.4 7.5a10 10 0 0 0-3.4 7.5v5c0 5.54 4.46 10 10 10" style="fill:#f55;fill-opacity:1;stroke:none"/><path d="M30 602.36s3 7.5 6.5 12.5 8.5 10 8.5 10-5 5-8.5 10-6.5 12.5-6.5 12.5-3-7.5-6.5-12.5-8.5-10-8.5-10 5-5 8.5-10 6.5-12.5 6.5-12.5m300 315s3 7.5 6.5 12.5 8.5 10 8.5 10-5 5-8.5 10-6.5 12.5-6.5 12.5-3-7.5-6.5-12.5-8.5-10-8.5-10 5-5 8.5-10 6.5-12.5 6.5-12.5m-150-360s6 15 13 25 17 20 17 20-10 10-17 20-13 25-13 25-6-15-13-25-17-20-17-20 10-10 17-20 13-25 13-25m0 180s6 15 13 25 17 20 17 20-10 10-17 20-13 25-13 25-6-15-13-25-17-20-17-20 10-10 17-20 13-25 13-25m0 180s6 15 13 25 17 20 17 20-10 10-17 20-13 25-13 25-6-15-13-25-17-20-17-20 10-10 17-20 13-25 13-25" style="fill:#f55;stroke:none"/></g></svg>