<svg xmlns="http://www.w3.org/2000/svg" width="360" height="540"><g transform="translate(0 -512.36)"><rect width="359" height="539" x=".5" y="512.86" rx="29.94" ry="29.94" style="fill:#fff"/><path d="m30 542.36-10 35v5h12v10h5v-10h3v-5h-3v-15h-5v15h-6.8l10-35zm300 480 10-35v-5h-12v-10h-5v10h-3v5h3v15h5v-15h6.8l-10 35zm-297.5-392c.5 2 2.5 7 6 7 4.5 0 6.5-4 6.5-9 0-3.5-1.29-5.8-2.5-8.5-1.29-2.87-3.19-5.43-5-8-2.32-3.3-7.5-9.5-7.5-9.5s-5.18 6.2-7.5 9.5c-1.81 2.57-3.71 5.13-5 8-1.21 2.7-2.5 5-2.5 8.5 0 5 2 9 6.5 9 3.5 0 5.5-5 6-7 .5-.5.5 0 .5.5-.5 4-.5 5-1 8s-2 8.5-2 8.5c2.5-1 7.5-1 10 0 0 0-1.5-5.5-2-8.5s-.5-4-1-8c0-.5 0-1 .5-.5m300 304c.5-2 2.5-7 6-7 4.5 0 6.5 4 6.5 9 0 3.5-1.29 5.8-2.5 8.5-1.29 2.87-3.19 5.43-5 8-2.32 3.3-7.5 9.5-7.5 9.5s-5.18-6.2-7.5-9.5c-1.81-2.57-3.71-5.13-5-8-1.21-2.7-2.5-5-2.5-8.5 0-5 2-9 6.5-9 3.5 0 5.5 5 6 7 .5.5.5 0 .5-.5-.5-4-.5-5-1-8s-2-8.5-2-8.5c2.5 1 7.5 1 10 0 0 0-1.5 5.5-2 8.5s-.5 4-1 8c0 .5 0 1 .5.5" style="fill:#000;fill-opacity:1;stroke:none"/><path d="M35 55.98c1 4 5 14.04 11.98 14.04 9 0 13-8.01 13-18C59.99 45 57.45 40.39 55 35c-2.58-5.74-6.38-10.88-9.99-16.02C40.36 12.4 30.01 0 30.01 0S19.63 12.4 15 19c-3.62 5.13-7.4 10.27-10 16-2.4 5.4-5 10-5 17.03 0 9.99 4 18 13 18 6.98 0 10.99-10.03 12.02-14.04.99-.99.99 0 .99 1.03-1 7.97-1 10-2.02 15.98-1 6.03-4 17.01-4 17.01C25.01 88.02 35 88.02 40 90c0 0-3-10.98-4-17-1-6-1-8.02-1.98-15.99 0-1.03 0-2.02.99-1.03" style="fill:#000;fill-opacity:1;fill-rule:nonzero;stroke:none" transform="translate(60 557.36)"/><path d="M35 55.98c1 4 5 14.04 11.98 14.04 9 0 13-8.01 13-18C59.99 45 57.45 40.39 55 35c-2.58-5.74-6.38-10.88-9.99-16.02C40.36 12.4 30.01 0 30.01 0S19.63 12.4 15 19c-3.62 5.13-7.4 10.27-10 16-2.4 5.4-5 10-5 17.03 0 9.99 4 18 13 18 6.98 0 10.99-10.03 12.02-14.04.99-.99.99 0 .99 1.03-1 7.97-1 10-2.02 15.98-1 6.03-4 17.01-4 17.01C25.01 88.02 35 88.02 40 90c0 0-3-10.98-4-17-1-6-1-8.02-1.98-15.99 0-1.03 0-2.02.99-1.03" style="fill:#000;fill-opacity:1;fill-rule:nonzero;stroke:none" transform="translate(240 557.36)"/><path d="M35 55.98c1 4 5 14.04 11.98 14.04 9 0 13-8.01 13-18C59.99 45 57.45 40.39 55 35c-2.58-5.74-6.38-10.88-9.99-16.02C40.36 12.4 30.01 0 30.01 0S19.63 12.4 15 19c-3.62 5.13-7.4 10.27-10 16-2.4 5.4-5 10-5 17.03 0 9.99 4 18 13 18 6.98 0 10.99-10.03 12.02-14.04.99-.99.99 0 .99 1.03-1 7.97-1 10-2.02 15.98-1 6.03-4 17.01-4 17.01C25.01 88.02 35 88.02 40 90c0 0-3-10.98-4-17-1-6-1-8.02-1.98-15.99 0-1.03 0-2.02.99-1.03" style="fill:#000;fill-opacity:1;fill-rule:nonzero;stroke:none" transform="matrix(1 0 0 -1 60 1007.36)"/><path d="M35 55.98c1 4 5 14.04 11.98 14.04 9 0 13-8.01 13-18C59.99 45 57.45 40.39 55 35c-2.58-5.74-6.38-10.88-9.99-16.02C40.36 12.4 30.01 0 30.01 0S19.63 12.4 15 19c-3.62 5.13-7.4 10.27-10 16-2.4 5.4-5 10-5 17.03 0 9.99 4 18 13 18 6.98 0 10.99-10.03 12.02-14.04.99-.99.99 0 .99 1.03-1 7.97-1 10-2.02 15.98-1 6.03-4 17.01-4 17.01C25.01 88.02 35 88.02 40 90c0 0-3-10.98-4-17-1-6-1-8.02-1.98-15.99 0-1.03 0-2.02.99-1.03" style="fill:#000;fill-opacity:1;fill-rule:nonzero;stroke:none" transform="matrix(1 0 0 -1 240 1007.36)"/></g></svg>