<svg xmlns="http://www.w3.org/2000/svg" width="360" height="540"><path d="M30.44.5h299.12a29.9 29.9 0 0 1 29.94 29.94v479.12a29.9 29.9 0 0 1-29.94 29.94H30.44A29.9 29.9 0 0 1 .5 509.56V30.44A29.9 29.9 0 0 1 30.44.5z" style="fill:#fff"/><path d="m260.22 302.31-9.53.68-12.23-2.38-13.46-5.28-11.73-6.62-9.03-7.51-16.66-20.77-8.86-12.4-8.32-7.33-16.2-11.9-13.96-7.49-17.18-5.1-13.43-1.38-9.7-.18-11.06 3.26 11.2 19.67 9.52-.67 12.26 2.4 13.43 5.25 11.77 6.66 9 7.48 16.69 20.76 8.85 12.44 8.33 7.3 16.16 11.9 13.96 7.51 17.18 5.1 13.43 1.35 9.71.18 11.06-3.22z" style="fill:#ff5;fill-opacity:1;fill-rule:nonzero;stroke:none"/><path d="M59.99 30.01h270v360" style="fill:none;stroke:#55a;stroke-width:1.98425198px;stroke-linecap:butt;stroke-linejoin:miter;stroke-miterlimit:4;stroke-opacity:1;stroke-dasharray:none"/><path d="M30.01 30.01v5h5v35c0 2.73-2.23 5-5 5-2.76 0-5-2.27-5-5v-5.03h-5.03v5.04a10 10 0 0 0 20.02 0v-40zm299.98 479.98v-5h-5v-35c0-2.73 2.23-5 5-5 2.76 0 5 2.27 5 5v5.03h5.03v-5.04a10 10 0 0 0-20.02 0v40z" style="fill:#000;fill-opacity:1;fill-rule:nonzero;stroke:none"/><path d="m170.08 184.43 37.88 30.76-.29 62.71-3.86 2.66-6.8-6.8-10.35-13.9-8.57-12.11-3.87-4.15-4.7-3.86zm52.09 108.85L247 275.24l2.38 4.75-21.3 16.87z" style="fill:#ff5;fill-opacity:1;fill-rule:nonzero;stroke:none"/><path d="m203.81 280 36.1-23.68 2.06 4.72-33.73 22.21z" style="fill:#ff5;fill-opacity:1;fill-rule:nonzero;stroke:none"/><path d="m217.13 208.38-.32 63.04 24-15.7-3.87-17.75-2.66-17.15-.6-15.98.32-8.58z" style="fill:#f55;fill-opacity:1;fill-rule:nonzero;stroke:none"/><path d="m207.67 283.25 34.3-22.78a575 575 0 0 0 5.64 14.77l-25.44 18.36s-6.49-2.13-9.18-4.15c-2.2-1.63-5.32-6.2-5.32-6.2M148 167.74l59.25 47.27L234 198l-.25-14 .75-13.25.5-10.49-27.26 18.5-35-28.77-4.5-2.23-2.48-2.27-4-.5-2.28-3.26-2.97.78-3.01-3.75h-3.02l-2.48-2.27z" style="fill:#000;fill-opacity:1;fill-rule:nonzero;stroke:none"/><path d="m138.01 131.5-.25 89 6 2.23 4.99 2.77-.25-89.26-3.26-.5-3.22-3.26-2.02.78z" style="fill:#000;fill-opacity:1;fill-rule:nonzero;stroke:none"/><path d="m260 208.24 20.24-10s3.9 11.06 6.02 16.52c2.13 5.46 4.04 11.02 6.74 16.23 1.8 3.5 3.82 6.9 6.23 10.03 2.38 3 8.01 8.22 8.01 8.22l-.25 78.52s-9.88-11.98-14-18.5c-3.57-5.7-6.3-11.94-9.24-18-3.83-7.94-7.9-15.77-10.99-24.02-2.09-5.53-3.54-11.27-5.03-16.98a263 263 0 0 1-3.97-18c-.81-4.39-1.3-8.85-2.02-13.25-.56-3.61-1.73-10.77-1.73-10.77" style="fill:#f55;fill-opacity:1;fill-rule:nonzero;stroke:#55a;stroke-width:1.98425198px;stroke-linecap:round;stroke-linejoin:round;stroke-opacity:1;stroke-dasharray:none"/><path d="m263.76 149.5 27.25 14.73-2.76 10.28.99 9.99 3.01 6.73-8 6.03-13.75 5.98-10.24 4.26-1-10v-12l.75-14 2.23-15.74z" style="fill:#ff5;fill-opacity:1;fill-rule:nonzero;stroke:none"/><path d="m226.49 296.75 22.75-17s3.96 8.68 6.02 13c1.63 3.44 5 10.24 5 10.24s-11.1.7-16.52-.25c-5.98-1.06-17.25-5.99-17.25-5.99" style="fill:#55a;fill-opacity:1;fill-rule:nonzero;stroke:none"/><path d="m329.99 382.75-16.87-14.64.25-279.74 16.62-.1z" style="fill:#000;fill-opacity:1;fill-rule:nonzero;stroke:none"/><path d="m95.99 148.6.18 66.83-6.91 2.13s-11.2-15.63-16.94-23.35c-4.18-5.56-8.68-10.91-12.76-16.62-.99-1.38-2.83-4.22-2.83-4.22s11.09-8.07 16.8-11.87q6.09-3.97 12.4-7.58c3.29-1.88 10.06-5.31 10.06-5.31" style="fill:#55a;fill-opacity:1;fill-rule:nonzero;stroke:none"/><path d="m112.25 140.5-.35 74.22s-5.53-.28-8.3-.17c-2.86.14-8.5.88-8.5.88l.18-66.82s6.3-3.4 9.53-4.93c2.45-1.17 7.44-3.19 7.44-3.19" style="fill:#000;fill-opacity:1;fill-rule:nonzero;stroke:none"/><path d="M205.23 64.13c-7.05.11-14.14-.1-21.2.36a193 193 0 0 0-17.5 1.91c-3.82.6-7.54 1.56-11.33 2.3-.57 4.15-1.2 8.26-1.77 12.37-.6 4.68-1.1 9.32-1.74 14-.5 3.47-.78 6.98-1.6 10.41-.5 2.06-1.3 4-1.94 6.03l-2.66.35c-.89-.88-1.45-2.3-2.66-2.66-1.6-.5-3.47.08-4.96.9-2.13 1.12-3.65 3.21-4.93 5.27a16 16 0 0 0-2.48 6.56 9 9 0 0 0 .71 4.42c.46 1.03 1.1 2.17 2.13 2.66 1 .46 2.23 0 3.37 0 .56.82.95 1.8 1.73 2.45 1.2.99 2.84 1.3 4.25 1.95.78.88 1.24 2.16 2.3 2.65.93.43 2.03 0 3.02 0 .88.82 1.52 2.02 2.66 2.48.92.36 1.98 0 2.97 0 1.03 1.17 1.6 2.9 3.01 3.55 1.03.42 2.24-.15 3.37-.18.89 1.06 1.42 2.59 2.66 3.19 1.03.46 2.23 0 3.36 0 1.1.92 2.1 2.05 3.33 2.8 1.46.88 3.02 1.56 4.61 1.95 1.67.39 3.44.67 5.14.35 1.84-.32 3.61-1.2 5.14-2.3a17 17 0 0 0 4.21-4.57 31 31 0 0 0 3.55-7.8c1.6-4.92 2.09-10.1 3-15.2 1.18-6.63 2.03-13.32 3.2-19.98a925 925 0 0 1 3.68-19.78c1.1-5.49 2.27-10.98 3.37-16.44" style="fill:#ff5;fill-opacity:1;fill-rule:nonzero;stroke:none"/><path d="m131.99 30.01 20.02 40s10.17-2.69 15.38-3.54c8.15-1.3 16.37-2.2 24.62-2.48 10-.32 20.02.14 29.98 1 11.76 1.06 35 5.03 35 5.03l23-40z" style="fill:#f55;fill-opacity:1;fill-rule:nonzero;stroke:#55a;stroke-width:1.98425198px;stroke-linecap:round;stroke-linejoin:round;stroke-opacity:1;stroke-dasharray:none"/><path d="M146.83 31.46 162 61.02c6.48-2.27 11.4-2.34 19.7-3.26l-3.9-26.3h-5.74l5.1 22.75c-4.74.32-8.5.29-12.6 1.92l-11.13-24.67zm39.87 0 3.04 25.3c10.07-.92 18.15-1.48 28.2-.46l5.5-24.84H217l-3.05 19.81c-7.9-.46-12.57.04-19.2.5l-2.23-20.3zm46.56 0-7.34 25.06c7.37.63 18.07 1.59 26.08 3.47l13.71-28.53h-6.34L248.99 55c-4.47-1.2-12.01-1.73-16.48-2.37l6.24-21.16z" style="fill:#55a;fill-opacity:1;fill-rule:nonzero;stroke:#55a;stroke-width:1.98425198px;stroke-linecap:round;stroke-linejoin:round;stroke-opacity:1;stroke-dasharray:none"/><path d="M205.02 64.98s-3.48 16.66-5.04 25.02c-1.8 9.96-2.9 20.1-5 30.01-1.37 6.73-1.59 14-4.99 19.99-2.3 4.1-5.42 8.78-9.99 9.99-4.43 1.17-10.2-.18-13.25-3.58-2.55-2.87-3.08-7.8-1.74-11.41 1.42-3.93 5.28-8.33 9.46-8.19 4.36.15 9.18 4.9 9.25 9.22.04 3.9-4.18 8.25-8.08 8.5-2.4.18-5.31-2.12-5.63-4.53-.4-2.8 2.16-6.84 5-6.8 1.7 0 4 1.98 2.93 4.14" style="fill:none;stroke:#55a;stroke-width:1.98425198px;stroke-linecap:round;stroke-linejoin:round;stroke-opacity:1;stroke-dasharray:none"/><path d="M199.17 64.17c-2.94 8.96-3.69 18.07-5.24 27.18-1.6 9.03-2.02 18.24-4.15 27.17-1.7 7.09-3.61 14.64-6.8 20.77m9.49-75.12c-2.23 7.8-2.9 16.05-4.14 24.1-1.2 7.86-1.63 15.87-3.16 23.66-1.1 5.67-1.91 11.34-4.32 16.7m5.67-64.07c-1.98 7.44-2.59 15.34-3.69 23.03-1.06 7.51-1.45 15.2-2.8 22.64-.99 5.39-1.7 10.84-3.86 15.95m4.53-60.98c-1.8 7.08-2.33 14.56-3.32 21.9-.96 7.12-1.31 14.38-2.52 21.47-.88 5.13-1.52 10.3-3.47 15.13M175 65.73c-1.77 6.73-2.33 13.85-3.3 20.8-.98 6.8-1.3 13.71-2.54 20.44-.89 4.9-1.53 9.78-3.47 14.39m2.94-54.75c-1.74 6.31-2.13 12.58-3.05 18.85-.92 6.35-1.28 12.76-2.48 19.03-.85 4.54-1.45 9.1-3.37 13.4m2.73-50.35c-1.66 5.74-2.16 11.8-3.05 17.71-.88 5.78-1.2 11.66-2.3 17.4-.81 4.15-1.42 8.33-3.19 12.26m1.56-45.43c-1.42 5.14-1.84 10.2-2.59 15.35-.78 5.17-1.02 10.45-1.98 15.59-.67 3.72-1.17 7.47-2.7 10.98m27.22 15.8c-1.63-1.1-3.08-3.08-5.03-3.15-3.23-.1-6.42 2.06-8.5 4.47a14 14 0 0 0-3.34 9.67 9.2 9.2 0 0 0 3.3 6.55c.95.71 2.02.54 3.58.68" style="fill:none;stroke:#55a;stroke-width:1.98425198px;stroke-linecap:round;stroke-linejoin:round;stroke-opacity:1;stroke-dasharray:none"/><path d="M168.94 123.98c-1.34-1.49-2.37-2.66-3.96-2.76-3.23-.18-6.42 2.05-8.5 4.5a13.7 13.7 0 0 0-3.34 9.63c.14 2.45 1.2 5.28 3.3 6.56.99.6 1.87.7 3.47-.07" style="fill:none;stroke:#55a;stroke-width:1.98425198px;stroke-linecap:round;stroke-linejoin:round;stroke-opacity:1;stroke-dasharray:none"/><path d="M164.06 121c-1.63-1.1-3.09-3.08-5.04-3.15-3.22-.1-6.41 2.06-8.5 4.5a13.7 13.7 0 0 0-3.33 9.64c.14 2.44 1.2 5.24 3.3 6.55.88.57 1.62.6 3.18.07" style="fill:none;stroke:#55a;stroke-width:1.98425198px;stroke-linecap:round;stroke-linejoin:round;stroke-opacity:1;stroke-dasharray:none"/><path d="M157.32 117.64c-1.24-1.77-2.48-2.66-4.14-2.77-3.2-.14-6.42 2.06-8.5 4.5a14 14 0 0 0-3.34 9.64c.18 2.45 1.31 5.14 3.3 6.56.92.63 1.63.85 3.36.46" style="fill:none;stroke:#55a;stroke-width:1.98425198px;stroke-linecap:round;stroke-linejoin:round;stroke-opacity:1;stroke-dasharray:none"/><path d="M151.62 114.27a4.5 4.5 0 0 0-3.76-2.62c-3.19-.21-6.41 2.05-8.47 4.46a14 14 0 0 0-3.36 9.68c.17 2.44 1.3 5.1 3.33 6.52.74.56 1.17.25 2.73.39" style="fill:none;stroke:#55a;stroke-width:1.98425198px;stroke-linecap:round;stroke-linejoin:round;stroke-opacity:1;stroke-dasharray:none"/><path d="M145.67 111.69c-.6-1.78-1.78-2.38-3.09-2.49-3.19-.31-6.41 2.02-8.5 4.47a14.5 14.5 0 0 0-3.33 9.64c.03 1.8.64 3.82 1.98 5 1.07.95 2.55.99 4.11 1.1m119.94-58.93c-.85 10.17-1.45 20.3-2.51 30.43-.57 5.53-1.07 11.1-2.02 16.59-1.31 7.26-1.63 14.98-5 21.54-2.05 3.97-5.35 7.3-8.86 10a30 30 0 0 1-10.91 5.45 29 29 0 0 1-12.72.25c-4.15-.89-7.83-3.23-11.55-5.25-4.68-2.51-8.93-5.74-13.4-8.6m13.15-57.02c3.93-1.13 7.76-2.76 11.8-3.4 2.62-.4 5.42-.92 7.97-.21 1.28.35 3.58 1.38 3.4 2.16-.1.39-.74.32-1.13.32-1.49.03-2.83-.93-4.32-1.14-2.16-.28-4.4-.21-6.6 0-3.75.4-7.4 1.53-11.12 2.27M225 92.16c.46-.5 1.74-.92 1.35-1.45-.46-.75-3.3-2.55-5.21-3.3-1.8-.7-3.8-.99-5.78-1.02a22 22 0 0 0-6.16.78c-1.39.39-2.48.99-4.04 1.66m-4.36 4.61c3.33-.85 6.59-2.13 10-2.52a24 24 0 0 1 7.26.1c1.94.4 3.86 1.14 5.49 2.2 1.06.75 1.88 1.78 2.69 2.8-1.63.71-3.15 1.74-4.89 2.17-2.73.7-5.6.99-8.4.67-2.37-.25-4.64-1.17-6.8-2.16-1.91-.85-3.54-2.2-5.35-3.26" style="fill:none;stroke:#55a;stroke-width:1.98425198px;stroke-linecap:round;stroke-linejoin:round;stroke-opacity:1;stroke-dasharray:none"/><path d="M209.2 91.95c.1 1.17-.32 2.48.24 3.5.68 1.25 2.06 2.06 3.4 2.52a5.5 5.5 0 0 0 3.3 0c1-.39 1.84-1.17 2.38-2.05.74-1.24.6-2.8.92-4.22" style="fill:none;stroke:#55a;stroke-width:1.98425198px;stroke-linecap:round;stroke-linejoin:round;stroke-opacity:1;stroke-dasharray:none"/><path d="M212.99 92.76c-.32.36-.18 1.03.07 1.42.28.46.81.82 1.31.82a1.5 1.5 0 0 0 1.31-.75c.32-.46.5-1.24.1-1.63-.67-.64-2.19-.5-2.8.14m-4.1 11.09c2.37-.46 5.7-.99 8.4-2.02 2.37-.92 4.64-2.69 6.7-3.64" style="fill:#55a;fill-opacity:1;fill-rule:nonzero;stroke:#55a;stroke-width:1.98425198px;stroke-linecap:round;stroke-linejoin:round;stroke-opacity:1;stroke-dasharray:none"/><path d="M237.15 86.5c-.6 1.48-1.52 2.86-1.84 4.42-.57 3.19-.14 6.52.25 9.78.46 3.97 1.91 7.83 2.59 11.8.42 2.27 1.45 4.64.92 6.9-.25 1.14-1.1 2.06-1.92 2.84-1.02.96-2.44 1.46-3.65 2.17m-9.63-13.15c-1.56 1.7-3.83 2.94-4.68 5.1a4.4 4.4 0 0 0 0 3.3 4.6 4.6 0 0 0 2.98 2.48c1.02.25 2.12-.32 3.04-.78 1.2-.64 1.88-2.06 3.09-2.62.85-.43 1.9-.93 2.83-.57.28.1.64.5.57.78-.32 1.03-1.99.78-2.94 1.13-1.32.5-2.6.92-3.87 1.38" style="fill:none;stroke:#55a;stroke-width:1.98425198px;stroke-linecap:round;stroke-linejoin:round;stroke-opacity:1;stroke-dasharray:none"/><path d="M216.32 132.45c1.6-.82 3.86-.64 5.77-.6 1.99.03 3.9.95 5.85.88 2.23-.1 4.29-1.6 6.56-1.6 1.63-.03 3.5.72 4.78 1.07-.07.57-.25 1.31 0 1.74-1.63-.6-3.97-1.5-5.99-1.24-1.91.24-3.3 2.44-5.24 2.48-2.24.07-3.97-2.48-6.24-2.59-2.16-.07-4.43 1.63-6.13 2.02.46-.64.67-1.7.64-2.16" style="fill:#55a;fill-opacity:1;fill-rule:nonzero;stroke:#55a;stroke-width:1.98425198px;stroke-linecap:round;stroke-linejoin:round;stroke-opacity:1;stroke-dasharray:none"/><path d="M220.25 139.4c1.6.67 3.08 1.7 4.79 2.01 1.24.25 2.58.22 3.86-.03.85-.14 1.63-.57 2.44-.89.75-.32 1.46-.7 2.2-1.03m-1.77 4.93a9 9 0 0 0-3.44-.92c-1 0-1.91.39-2.83.81" style="fill:none;stroke:#55a;stroke-width:1.98425198px;stroke-linecap:round;stroke-linejoin:round;stroke-opacity:1;stroke-dasharray:none"/><path d="M238.29 83.55c1.56-1.84 5-2.3 7.69-2.51 1.98-.15 3.93.39 5.84.95 1.35.4 2.66 1.14 3.94 1.74-2.17-.43-4.4-1.2-6.63-1.28-1.95-.03-3.9.36-5.81.78a16 16 0 0 0-3.8 1.6c-.49.28-1.62-.82-1.23-1.28" style="fill:#55a;fill-opacity:1;fill-rule:nonzero;stroke:#55a;stroke-width:1.98425198px;stroke-linecap:round;stroke-linejoin:round;stroke-opacity:1;stroke-dasharray:none"/><path d="M237.72 90.35c1.56-.78 2.98-1.84 4.64-2.26 2.34-.68 4.9-1 7.27-.57 1.59.28 2.94 1.35 4.43 1.98m-17.36 4.15a27 27 0 0 1 12.47-1.52c1.3.17 2.69.42 3.86 1.1.7.42 1.17 1.2 1.77 1.8l-.36 2.73c-1.16.43-2.33 1.03-3.57 1.24-1.67.32-3.44.32-5.14.21-1.84-.1-3.72-.21-5.46-.88a14 14 0 0 1-3.58-2.34c-.35-.32-.63-.68-.95-1.03.32-.42.46-1.1.95-1.31" style="fill:none;stroke:#55a;stroke-width:1.98425198px;stroke-linecap:round;stroke-linejoin:round;stroke-opacity:1;stroke-dasharray:none"/><path d="M241.09 92.9c.07 1.17-.32 2.49.24 3.51a6 6 0 0 0 3.4 2.52 5 5 0 0 0 3.3 0 4.8 4.8 0 0 0 2.38-2.06c.74-1.2.6-2.8.92-4.18" style="fill:none;stroke:#55a;stroke-width:1.98425198px;stroke-linecap:round;stroke-linejoin:round;stroke-opacity:1;stroke-dasharray:none"/><path d="M244.56 93.76c-.32.35-.18.99.07 1.41.28.43.81.78 1.31.82.53 0 1.06-.32 1.31-.75.32-.46.5-1.27.1-1.66-.66-.6-2.15-.5-2.8.18" style="fill:#55a;fill-opacity:1;fill-rule:nonzero;stroke:#55a;stroke-width:1.98425198px;stroke-linecap:round;stroke-linejoin:round;stroke-opacity:1;stroke-dasharray:none"/><path d="M237.5 99.07c1.28 1.38 2.31 3.01 3.8 4.18 1.2.92 2.66 1.42 4 2.13" style="fill:none;stroke:#55a;stroke-width:1.98425198px;stroke-linecap:round;stroke-linejoin:round;stroke-opacity:1;stroke-dasharray:none"/><path d="M253.56 108.6a24 24 0 0 0 2.62 7.02c1.28 2.12 2.73 4.25 4.78 5.63 1.63 1.06 3.62 1.92 5.57 1.74 1.77-.14 3.65-1 4.75-2.41s1.27-3.47 1.16-5.28c-.1-1.63-.56-3.4-1.66-4.64a6 6 0 0 0-3.86-2.06c-1.03-.1-2.2.07-2.94.78-.57.53-.78 1.45-.78 2.23.03.85-.07 1.74.99 2.34-.78-.32-1.31-1.3-1.88-2.05a20 20 0 0 1-1.91-3.51c-.64-1.38-1.07-2.87-1.5-4.36-.52-2.02-.91-4.1-1.34-6.13a982 982 0 0 1-2.05-9.64c-.57 5.53-1.35 14.78-1.95 20.34" style="fill:#ff5;fill-opacity:1;fill-rule:nonzero;stroke:#55a;stroke-width:1.98425198px;stroke-linecap:round;stroke-linejoin:round;stroke-opacity:1;stroke-dasharray:none"/><path d="M250.83 128.59a49 49 0 0 0 4.86 12.36 19 19 0 0 0 4.78 5.64c1.6 1.17 3.47 2.48 5.46 2.34 1.87-.15 3.75-1.46 4.85-3.02 1.03-1.45 1.28-3.47 1.17-5.24-.1-1.67-.57-3.44-1.67-4.68a6.3 6.3 0 0 0-3.9-2.05c-.99-.1-2.16.1-2.9.78a3 3 0 0 0-.78 2.23c.07.81.04 1.56 1.06 2.16-.78-.32-1.38-1.13-1.95-1.84a19 19 0 0 1-1.94-3.51c-.6-1.42-1-2.94-1.46-4.4-.53-1.73-1.02-3.5-1.56-5.24-1.16-4.1-2.97-9.7-3.5-12.26-.57 5.53-1.95 11.16-2.52 16.73" style="fill:#ff5;fill-opacity:1;fill-rule:nonzero;stroke:#55a;stroke-width:1.98425198px;stroke-linecap:round;stroke-linejoin:round;stroke-opacity:1;stroke-dasharray:none"/><path d="M248.6 136.42s.92 2.87 1.56 4.21a55 55 0 0 0 2.62 4.36s3.22 1.45 4.89 2.06c1.56.56 4.75 1.45 4.75 1.45s-3.69-2.87-5.14-4.68c-1.28-1.56-2.16-3.4-3.05-5.24-.81-1.77-1.38-3.69-2.02-5.56-.56-1.67-1.56-5.07-1.56-5.07s-.56 3.33-.99 5c-.28 1.16-1.06 3.47-1.06 3.47" style="fill:#ff5;fill-opacity:1;fill-rule:nonzero;stroke:#55a;stroke-width:1.98425198px;stroke-linecap:round;stroke-linejoin:round;stroke-opacity:1;stroke-dasharray:none"/><path d="m252.78 145-6.8-3.9 2.62-4.75zm-70.38 4.2 24.92 20.7 28.06-18.46-.67 8.97-27.04 18.6-35.11-28.99c2.83.96 6.59.82 9.85-.81" style="fill:#ff5;fill-opacity:1;fill-rule:nonzero;stroke:#55a;stroke-width:1.98425198px;stroke-linecap:round;stroke-linejoin:round;stroke-opacity:1;stroke-dasharray:none"/><path d="m112.25 158.53 9.36 10.6-9.18 9.7" style="fill:none;stroke:#55a;stroke-width:1.98425198px;stroke-linecap:round;stroke-linejoin:round;stroke-opacity:1;stroke-dasharray:none"/><path d="m112.6 164.94 3.37 3.9-3.36 3.5" style="fill:none;stroke:#55a;stroke-width:1.98425198px;stroke-linecap:round;stroke-linejoin:round;stroke-opacity:1;stroke-dasharray:none"/><path d="m125.5 146.52-9.35 9.7 9 9.89 9.1-9.89zm-.17 4.18 5.35 5-5.35 5.87-5.18-5.17z" style="fill:#55a;fill-opacity:1;fill-rule:nonzero;stroke:#55a;stroke-width:1.98425198px;stroke-linecap:round;stroke-linejoin:round;stroke-opacity:1;stroke-dasharray:none"/><path d="m329.99 52.02-37.99 36h38z" style="fill:#ff5;fill-opacity:1;fill-rule:nonzero;stroke:#55a;stroke-width:1.98425198px;stroke-linecap:round;stroke-linejoin:round;stroke-opacity:1;stroke-dasharray:none"/><path d="m329.99 59.99-23 22h23z" style="fill:#f55;fill-opacity:1;fill-rule:nonzero;stroke:#55a;stroke-width:1.98425198px;stroke-linecap:round;stroke-linejoin:round;stroke-opacity:1;stroke-dasharray:none"/><path d="m111.69 184.11 9.35 10.63-9.18 9.7" style="fill:none;stroke:#55a;stroke-width:1.98425198px;stroke-linecap:round;stroke-linejoin:round;stroke-opacity:1;stroke-dasharray:none"/><path d="m112.04 190.56 3.37 3.86-3.37 3.54m25.12-38.33-9.18 9.85 9.18 9.7" style="fill:none;stroke:#55a;stroke-width:1.98425198px;stroke-linecap:round;stroke-linejoin:round;stroke-opacity:1;stroke-dasharray:none"/><path d="m136.98 165.3-3.36 3.9 3.36 3.5m-.53 30.97-8.6-9.28 9.17-9.71" style="fill:none;stroke:#55a;stroke-width:1.98425198px;stroke-linecap:round;stroke-linejoin:round;stroke-opacity:1;stroke-dasharray:none"/><path d="m136.84 198.57-3.33-3.87 3.33-3.54" style="fill:none;stroke:#55a;stroke-width:1.98425198px;stroke-linecap:round;stroke-linejoin:round;stroke-opacity:1;stroke-dasharray:none"/><path d="m124.51 172.28-9.35 9.7 9 9.89 9.5-10.06zm-.18 4.18 5.36 5-5.36 5.87-5.17-5.17zm.57 21.19-9.32 9.7 9 9.43 9.68-9.21zm-.14 4.18 5.35 5-5.35 5.87-5.2-5.13z" style="fill:#55a;fill-opacity:1;fill-rule:nonzero;stroke:#55a;stroke-width:1.98425198px;stroke-linecap:round;stroke-linejoin:round;stroke-opacity:1;stroke-dasharray:none"/><path d="m137.37 152.3-8.4-9.08 7.84-8.4" style="fill:none;stroke:#55a;stroke-width:1.98425198px;stroke-linecap:round;stroke-linejoin:round;stroke-opacity:1;stroke-dasharray:none"/><path d="m137.23 147.01-3.36-3.5 2.76-3.34m-23.99 14.03 9.96-10.41-5.74-6.06" style="fill:none;stroke:#55a;stroke-width:1.98425198px;stroke-linecap:round;stroke-linejoin:round;stroke-opacity:1;stroke-dasharray:none"/><path d="m113 147.8 3.36-3.9-3.36-3.55" style="fill:none;stroke:#55a;stroke-width:1.98425198px;stroke-linecap:round;stroke-linejoin:round;stroke-opacity:1;stroke-dasharray:none"/><path d="m111.76 210.3 3.86 4.6m21.86-4.82-7.09 7.3m-18.24-76.6-.57 73.87m26.12-82.91-.22 88.4" style="fill:#f55;fill-opacity:1;fill-rule:nonzero;stroke:#55a;stroke-width:1.98425198px;stroke-linecap:round;stroke-linejoin:round;stroke-opacity:1;stroke-dasharray:none"/><path d="m121.18 136.17 4.4 4.4 8.46-8.44-1.34-2.3z" style="fill:#55a;fill-opacity:1;fill-rule:nonzero;stroke:#55a;stroke-width:1.98425198px;stroke-linecap:round;stroke-linejoin:round;stroke-opacity:1;stroke-dasharray:none"/><path d="M307 88.02v70.97l6.02 2.02V88zM313.02 368V166h-6.03v204L330 390v-7z" style="fill:#ff5;fill-opacity:1;fill-rule:nonzero;stroke:#55a;stroke-width:1.98425198px;stroke-linecap:round;stroke-linejoin:round;stroke-opacity:1;stroke-dasharray:none"/><path d="M321.48 90c-1.17 0-2.48 1.31-2.48 2.52 0 1.17 1.31 2.48 2.48 2.48 1.2 0 2.52-1.31 2.52-2.48 0-1.2-1.31-2.52-2.52-2.52m0 14c-1.17 0-2.48 1.3-2.48 2.51 0 1.17 1.31 2.48 2.48 2.48 1.2 0 2.52-1.3 2.52-2.48 0-1.2-1.31-2.51-2.52-2.51m3.02-6.98c-1.17 0-2.48 1.3-2.48 2.48 0 1.17 1.3 2.51 2.48 2.51 1.17 0 2.51-1.34 2.51-2.51s-1.34-2.48-2.51-2.48m-6 0c-1.16 0-2.5 1.3-2.5 2.48 0 1.17 1.34 2.51 2.5 2.51 1.18 0 2.49-1.34 2.49-2.51s-1.31-2.48-2.48-2.48m3.15 41.74c-1.2 0-2.51 1.3-2.51 2.51 0 1.17 1.3 2.48 2.51 2.48 1.17 0 2.48-1.3 2.48-2.48 0-1.2-1.3-2.51-2.48-2.51m0 13.99c-1.2 0-2.51 1.35-2.51 2.52s1.3 2.48 2.51 2.48c1.17 0 2.48-1.31 2.48-2.48s-1.3-2.52-2.48-2.52m2.98-6.98c-1.17 0-2.48 1.31-2.48 2.48 0 1.2 1.3 2.52 2.48 2.52 1.2 0 2.51-1.31 2.51-2.52 0-1.17-1.3-2.48-2.51-2.48m-5.99 0c-1.17 0-2.52 1.31-2.52 2.48 0 1.2 1.35 2.52 2.52 2.52s2.52-1.31 2.52-2.52c0-1.17-1.35-2.48-2.52-2.48m2.8 41.78c-1.17 0-2.48 1.3-2.48 2.48 0 1.2 1.31 2.51 2.48 2.51s2.51-1.3 2.51-2.51c0-1.17-1.34-2.48-2.51-2.48m0 13.99c-1.17 0-2.48 1.31-2.48 2.48 0 1.2 1.31 2.52 2.48 2.52s2.51-1.31 2.51-2.52c0-1.17-1.34-2.48-2.51-2.48m3.01-7.01c-1.17 0-2.52 1.34-2.52 2.51s1.35 2.48 2.52 2.48 2.48-1.3 2.48-2.48c0-1.17-1.31-2.51-2.48-2.51m-5.99 0c-1.2 0-2.51 1.34-2.51 2.51s1.3 2.48 2.51 2.48c1.17 0 2.48-1.3 2.48-2.48 0-1.17-1.3-2.51-2.48-2.51m2.8 42.55c-1.17 0-2.51 1.31-2.51 2.48 0 1.2 1.34 2.52 2.51 2.52s2.48-1.31 2.48-2.52c0-1.17-1.3-2.48-2.48-2.48m0 14c-1.17 0-2.51 1.31-2.51 2.51 0 1.17 1.34 2.48 2.51 2.48s2.48-1.3 2.48-2.48c0-1.2-1.3-2.51-2.48-2.51m2.98-7.02c-1.17 0-2.48 1.35-2.48 2.52s1.3 2.51 2.48 2.51c1.2 0 2.51-1.34 2.51-2.51s-1.3-2.52-2.51-2.52m-5.99 0c-1.17 0-2.48 1.35-2.48 2.52s1.31 2.51 2.48 2.51 2.52-1.34 2.52-2.51-1.35-2.52-2.52-2.52m3.01 41.42c-1.17 0-2.51 1.32-2.51 2.48 0 1.17 1.34 2.52 2.51 2.52s2.48-1.35 2.48-2.52c0-1.16-1.3-2.48-2.48-2.48m0 14c-1.17 0-2.51 1.31-2.51 2.48 0 1.2 1.34 2.52 2.51 2.52s2.48-1.31 2.48-2.52c0-1.17-1.3-2.48-2.48-2.48m2.98-7.02c-1.17 0-2.48 1.32-2.48 2.52 0 1.17 1.3 2.48 2.48 2.48 1.2 0 2.51-1.31 2.51-2.48 0-1.2-1.3-2.52-2.51-2.52m-5.99 0c-1.17 0-2.48 1.32-2.48 2.52 0 1.17 1.31 2.48 2.48 2.48s2.52-1.31 2.52-2.48c0-1.2-1.35-2.52-2.52-2.52m2.44 41.6c-1.2 0-2.51 1.31-2.51 2.48 0 1.2 1.31 2.52 2.51 2.52 1.17 0 2.49-1.31 2.49-2.52 0-1.17-1.32-2.48-2.49-2.48m0 14c-1.2 0-2.51 1.31-2.51 2.48 0 1.2 1.31 2.52 2.51 2.52 1.17 0 2.49-1.32 2.49-2.52 0-1.17-1.32-2.48-2.49-2.48m2.98-7.02c-1.17 0-2.48 1.35-2.48 2.52s1.31 2.48 2.48 2.48 2.52-1.31 2.52-2.48-1.35-2.52-2.52-2.52m-5.98 0c-1.18 0-2.52 1.35-2.52 2.52s1.34 2.48 2.51 2.48 2.48-1.31 2.48-2.48-1.3-2.52-2.48-2.52M315 127v-5l13-12.02v5.04zm0 8v-5l13-12v4.99zm0 41.99v-5l13-11.97v5zm0 8.01v-5l13-12.01v5zm0 41.98v-5l13-11.97v5zm0 8.02v-5l13-12.02v5.04zm0 40v-5l13-12.01v5zm0 8v-5l13-12v5zm0 39.02v-5.04l13-11.97v5zm0 7.97v-5l13-11.97v5zm.14 38.27-.14-1.24L328 355v5l-9.99 9.89zm6.59 5.24-2.37-1.98 8.64-8.5V368z" style="fill:#ff5;fill-opacity:1;fill-rule:nonzero;stroke:none"/><path d="m247.5 170.96-9.35 9.75 9 9.88 9.67-9.7zm-.18 4.22 5.35 5-5.35 5.84-5.17-5.13zm3.9-31.71-10.52 8.47 7.69 10.95 10.8-8.4zm-.67 4.14 4.64 5.64-6.06 5.14-4.46-5.78zm-3.4 49.22-8.26 9.92 10.03 8.22 8.36-9.92zm.28 3.9 5.85 4.07-4.68 5.96-5.7-4.26zm2.17 19.49-7.84 10.98 10.35 8.5 8.18-11.01zm.45 4.18 6.02 4.14-4.42 6.6-5.89-4.33zm3.72 21.61-6.02 12.05 11.51 6.8 6.38-12.15zm1.1 4.04 6.6 3.19-3.38 7.2-6.48-3.37zm6.17 21.37-4.9 12.58 12.12 5.67 5.21-12.69zm1.48 3.93 6.84 2.55-2.66 7.48-6.76-2.73zm9.25 21.72-2.4 13.25 12.96 3.3 2.7-13.43zm2.2 3.58 7.23 1.2-1.24 7.84-7.16-1.42zm11.27 20.13-1.28 13.42 13.22 2.17 1.52-13.65zm2.48 3.4 7.3.56-.54 7.94-7.26-.81z" style="fill:#55a;fill-opacity:1;fill-rule:nonzero;stroke:#55a;stroke-width:1.98425198px;stroke-linecap:round;stroke-linejoin:round;stroke-opacity:1;stroke-dasharray:none"/><path d="m261.25 158.78-10.2 8.18 8.07 10" style="fill:none;stroke:#55a;stroke-width:1.98425198px;stroke-linecap:round;stroke-linejoin:round;stroke-opacity:1;stroke-dasharray:none"/><path d="m260.47 163.98-3.76 3.3 2.94 3.61m2.84-21.39s-1.45 12.32-1.99 18.49c-.74 8.57-1.84 17.15-1.77 25.76.1 7.55 1.07 15.02 2.02 22.5 1.03 7.97 2.2 15.9 4 23.74q3 13.08 7.48 25.76a212 212 0 0 0 9.53 22.25q5.75 11.72 12.72 22.75C298.03 316.35 306 327 306 327m-70.97-150.86 10.63-11.34-9.5-11.41" style="fill:none;stroke:#55a;stroke-width:1.98425198px;stroke-linecap:round;stroke-linejoin:round;stroke-opacity:1;stroke-dasharray:none"/><path d="m235.45 169.62 4.54-4.75-4.18-5.17m22.71 24.87-8.54 8.22 7.9 8.68" style="fill:none;stroke:#55a;stroke-width:1.98425198px;stroke-linecap:round;stroke-linejoin:round;stroke-opacity:1;stroke-dasharray:none"/><path d="m258.2 189.43-3.15 3.26 2.9 3.15m-23.88 10.2 10.24-11.69-9.85-11.09" style="fill:none;stroke:#55a;stroke-width:1.98425198px;stroke-linecap:round;stroke-linejoin:round;stroke-opacity:1;stroke-dasharray:none"/><path d="m234.28 199.52 4.36-4.92-4.36-5m2.55 41.74 8.97-12.68-10.91-10.03" style="fill:none;stroke:#55a;stroke-width:1.98425198px;stroke-linecap:round;stroke-linejoin:round;stroke-opacity:1;stroke-dasharray:none"/><path d="m236.37 224.82 3.83-5.31-4.85-4.57m6.23 41.74 7.44-13.64-12.04-8.69" style="fill:none;stroke:#55a;stroke-width:1.98425198px;stroke-linecap:round;stroke-linejoin:round;stroke-opacity:1;stroke-dasharray:none"/><path d="m240.38 250.26 3.19-5.74-5.35-3.96m13.78 42.2 5.31-14.64-13.18-6.77" style="fill:none;stroke:#55a;stroke-width:1.98425198px;stroke-linecap:round;stroke-linejoin:round;stroke-opacity:1;stroke-dasharray:none"/><path d="m249.84 276.6 2.3-6.17-5.88-3.12m18.28 41.91 3.55-15.16-13.93-5.14" style="fill:none;stroke:#55a;stroke-width:1.98425198px;stroke-linecap:round;stroke-linejoin:round;stroke-opacity:1;stroke-dasharray:none"/><path d="m261.67 303.34 1.53-6.38-6.2-2.37" style="fill:none;stroke:#55a;stroke-width:1.98425198px;stroke-linecap:round;stroke-linejoin:round;stroke-opacity:1;stroke-dasharray:none"/><path d="m279.32 333.35 2.02-15.4-13.22-3.9" style="fill:none;stroke:#55a;stroke-width:2.05511808px;stroke-linecap:round;stroke-linejoin:round;stroke-opacity:1;stroke-dasharray:none"/><path d="m276.17 327.76.92-6.49-5.92-1.84m26.04 37.27-.74-16.05-13.68-1.48" style="fill:none;stroke:#55a;stroke-width:2.05511808px;stroke-linecap:round;stroke-linejoin:round;stroke-opacity:1;stroke-dasharray:none"/><path d="m293.14 351.07-.25-6.48-6.13-.75" style="fill:none;stroke:#55a;stroke-width:2.05511808px;stroke-linecap:round;stroke-linejoin:round;stroke-opacity:1;stroke-dasharray:none"/><path d="M260.75 303.73c4 6.7 7.8 13.47 12.01 20.02 5.39 8.44 10.88 16.8 16.98 24.73 5.17 6.74 11.02 12.87 16.5 19.28m-5.48-7.51 5.74.74" style="fill:none;stroke:#55a;stroke-width:1.98425198px;stroke-linecap:round;stroke-linejoin:round;stroke-opacity:1;stroke-dasharray:none"/><path d="m306.25 356.99-5.5-1.24.5-14.5 5 1.25z" style="fill:#55a;fill-opacity:1;fill-rule:nonzero;stroke:#55a;stroke-width:1.98425198px;stroke-linecap:round;stroke-linejoin:round;stroke-opacity:1;stroke-dasharray:none"/><path d="m302.24 323.26-.99 13 5 1.24m-46.56-129.69-7.48 9.29 8.97 7.58" style="fill:none;stroke:#55a;stroke-width:1.98425198px;stroke-linecap:round;stroke-linejoin:round;stroke-opacity:1;stroke-dasharray:none"/><path d="m259.97 212.7-2.73 3.65 3.26 2.77m1.5 13.32-5.75 10.38 10.1 5.96" style="fill:none;stroke:#55a;stroke-width:1.98425198px;stroke-linecap:round;stroke-linejoin:round;stroke-opacity:1;stroke-dasharray:none"/><path d="m263.13 237.19-2.06 4.04 3.69 2.16m3.75 13.39-4.85 10.85 10.56 5.1" style="fill:none;stroke:#55a;stroke-width:1.98425198px;stroke-linecap:round;stroke-linejoin:round;stroke-opacity:1;stroke-dasharray:none"/><path d="m270.04 261.46-1.7 4.18 3.86 1.84m4.5 13.75-2.9 11.52 11.3 3.19" style="fill:none;stroke:#55a;stroke-width:1.98425198px;stroke-linecap:round;stroke-linejoin:round;stroke-opacity:1;stroke-dasharray:none"/><path d="m279 285.56-.96 4.42 4.15 1.14m6.48 13.14-1.56 11.8 11.6 1.85" style="fill:none;stroke:#55a;stroke-width:1.98425198px;stroke-linecap:round;stroke-linejoin:round;stroke-opacity:1;stroke-dasharray:none"/><path d="m291.47 308.3-.42 4.5 4.21.68" style="fill:none;stroke:#55a;stroke-width:1.98425198px;stroke-linecap:round;stroke-linejoin:round;stroke-opacity:1;stroke-dasharray:none"/><path d="M280.98 198.5c3.2 8.75 5.82 17.71 9.54 26.25 2.33 5.39 4.6 10.92 7.97 15.73 2.23 3.2 5.35 5.67 8 8.5l-.24-13.99-4.5 1 2.51-6.24-5.77-.25 3.5-4.25-5.24-.5 3.26-4.5-5.77-.25 4-5-6.48-.49 3.75-5-5.77-.53 3.5-4.74-5-.75 3.27-5.49-7.02-.25z" style="fill:#55a;fill-opacity:1;fill-rule:nonzero;stroke:#55a;stroke-width:1.98425198px;stroke-linecap:round;stroke-linejoin:round;stroke-opacity:1;stroke-dasharray:none"/><path d="M292 164.23c2.34-2.51 6.2-3.15 9.5-4.18 1.77-.53 3.65-1.1 5.5-1 2.08.12 4.28.54 6.02 1.75.92.67 1.9 1.63 1.98 2.76.07.85-.6 1.7-1.24 2.23-.6.5-1.49.57-2.27.75-1.24.35-2.62.14-3.75.74a5.3 5.3 0 0 0-2.41 2.55c-.53 1.24-.36 2.76-.11 4.11.28 1.52 1.1 3.12 1.77 4.29l-.25 14.28c-2.83.32-5.8 1.24-8.75.99-1.73-.14-3.68-.35-5-1.49-2.37-2.12-3-5.67-3.75-8.75a27 27 0 0 1-.5-9.74c.46-3.26 1.03-6.88 3.26-9.29m-31.25 43.27a221 221 0 0 0 12.01-5.25 232 232 0 0 0 10-5.24c3.11-1.7 6.73-3.58 9.24-5.25m-29.76-42.52c5.42 2.6 10.91 5.07 16.26 7.76 4.3 2.17 8.5 4.5 12.76 6.74" style="fill:#fff;fill-opacity:1;fill-rule:nonzero;stroke:#55a;stroke-width:1.98425198px;stroke-linecap:round;stroke-linejoin:round;stroke-opacity:1;stroke-dasharray:none"/><path d="M286.51 161.5s-2.3 7.23-2.76 10.99c-.46 3.82-.6 7.72 0 11.51.56 3.37 3.26 9.75 3.26 9.75L274.25 201l5.5-9-6-6.02 6.49-7.23-5.99-8.26 5.25-4.25-3.26-9.99z" style="fill:#fff;fill-opacity:1;fill-rule:nonzero;stroke:#55a;stroke-width:1.98425198px;stroke-linecap:round;stroke-linejoin:round;stroke-opacity:1;stroke-dasharray:none"/><path d="m264.01 151.26 7.48 12.23-6.49 6.27 6.24 8.5-6.48 7.98 5.74 5.77-6.98 13.5" style="fill:none;stroke:#55a;stroke-width:1.98425198px;stroke-linecap:round;stroke-linejoin:round;stroke-opacity:1;stroke-dasharray:none"/><path d="m262.49 157.75 2.51 4-3.75 3.01m-.75 10 3.02 3.75-3.26 4.25m-.5 6.49 3.22 4.5-3.22 5" style="fill:none;stroke:#55a;stroke-width:1.98425198px;stroke-linecap:round;stroke-linejoin:round;stroke-opacity:1;stroke-dasharray:none"/><path d="m266.74 213.73 11.27-5.49s3.4 11.45 5.49 17c1.77 4.76 3.47 9.61 5.99 14 2.94 5.07 10.52 14 10.52 14v52.26s-9.88-15.7-14-23.98a201 201 0 0 1-11.01-26.5 186 186 0 0 1-5.74-23.29c-1.14-5.92-2.52-18-2.52-18m-2.05-157.21s.67 7.3 2.3 10.48a23 23 0 0 0 7.01 7.76 21 21 0 0 0 8.26 3.48c2.44.5 5 .24 7.48 0 1.7-.15 5-1 5-1s-3.2-1.02-4.22-2.23c-2.24-2.55-2.56-6.27-3.51-9.5-.96-3.22-1.17-6.62-2.27-9.77-1.1-3.2-2.09-6.63-4.25-9.25a11 11 0 0 0-4.5-3.23c-1.03-.42-3.3-.53-3.3-.53z" style="fill:#ff5;fill-opacity:1;fill-rule:nonzero;stroke:#55a;stroke-width:1.98425198px;stroke-linecap:round;stroke-linejoin:round;stroke-opacity:1;stroke-dasharray:none"/><path d="M269.5 49.46c1.2 3.97 2.24 7.8 4.26 11.27 1.7 3.01 4.1 5.53 6.48 8.01 1.56 1.63 3.33 3.01 5 4.5" style="fill:none;stroke:#55a;stroke-width:1.98425198px;stroke-linecap:round;stroke-linejoin:round;stroke-opacity:1;stroke-dasharray:none"/><path d="M278.11 52.62c-1.77.95-5.7.1-7.65-.29-1.35 2.66-2.44 4.72-2.34 7.2m11.58-2.38c-1.76.96-5.1.68-7.04.29-1.35 2.65-2.45 5.24-2.34 7.72m11.66-1.84c-1.81.96-4.36.25-6.31-.14-1.35 2.65-1.06 5.06-.96 7.54m9.85-2.9c-1.77 1-2.9.07-4.85-.32-1.35 2.66-.64 3.69-.53 6.17M270 48.37c1.77.28 3.54.42 5.31-.36" style="fill:none;stroke:#55a;stroke-width:1.98425198px;stroke-linecap:round;stroke-linejoin:round;stroke-opacity:1;stroke-dasharray:none"/><path d="M149.92 141.6c-.85.3-1.95.88-2.06 1.8-.1.88.89 1.66 1.63 2.16.43.28 1.03.25 1.53.42.53.18 1.24.25 1.59.75s.1 1.24.25 1.84c.42 1.49.6 3.26 1.73 4.29 1 .95 2.52 1.13 3.87 1.27 1.17.11 2.34-.28 3.47-.42.92-.1 1.8-.4 2.73-.32.46.07.95.1 1.3.39.33.28.43.74.5 1.13.22.85.08 1.74.11 2.63.04 1.13-.18 2.3.1 3.36.36 1.28.9 2.66 1.92 3.47 1.1.89 2.62 1.1 4 1.17 1.17.04 2.3-.42 3.48-.63.88-.18 1.73-.54 2.65-.5.4 0 .85 0 1.14.28.18.14.18.46.21.68.07.74-.14 1.45-.21 2.2-.07.99-.43 2.01-.25 3 .18 1.21.53 2.56 1.38 3.44.96.96 2.45 1.38 3.8 1.63 1.16.18 2.37-.25 3.54-.28 1.45 0 3.22-.75 4.36.18.88.7.56 2.16.77 3.26.22 1.02.11 2.09.5 3 .5 1.14 1.13 2.35 2.16 2.98.85.53 1.99.6 2.98.53.74-.03 1.45-.46 2.2-.67.6-.18 1.27-.78 1.87-.53.18.07.22.32.25.5.28.6.4 1.24.6 1.87.29.78.4 1.74.96 2.38.78.92 1.88 1.8 3.08 1.8 1.17-.03 2.27-.92 3.01-1.8.54-.67.57-1.6.82-2.38.21-.6.32-1.2.53-1.8.07-.1.07-.29.18-.32.14-.1.35-.04.53 0 .6.14 1.13.5 1.7.7.82.29 1.56.79 2.41.86 1.13.07 2.41.03 3.3-.64 1.02-.74 1.52-2.13 1.8-3.37.25-1.02-.07-2.05-.1-3.11-.04-.71-.22-1.46-.11-2.2.04-.18 0-.4.14-.5.29-.25.75-.14 1.1-.14.82.04 1.6.28 2.37.5 1.07.35 2.02 1.2 3.12 1.27.96.04 2.34 0 2.77-.85.46-.85-.29-2.02-.93-2.73-.95-.95-2.48-1.1-3.75-1.48-1.1-.32-2.2-.71-3.33-.71-1.24.03-2.62.1-3.62.85-1.02.78-1.56 2.12-1.84 3.36-.25 1 .07 2.06.07 3.09.04.78.64 1.8.07 2.33-.46.43-1.24-.03-1.84-.17-.81-.22-1.52-.78-2.34-.92-1.06-.15-2.23-.25-3.22.2-.96.5-1.6 1.5-2.16 2.42-.4.67-.04 2.16-.82 2.16-.81 0-.42-1.6-.81-2.3-.57-.96-1.17-2.06-2.2-2.45-1.56-.64-3.37.43-5.07.4-.64 0-1.45.24-1.95-.19-.56-.53-.2-1.52-.42-2.26-.6-2.1-.6-4.72-2.3-6.06-1.95-1.56-4.9-.96-7.37-1.03-.93 0-1.81.35-2.7.25-.46-.07-.99-.14-1.27-.5-.18-.18-.22-.46-.25-.74-.07-.75.18-1.5.25-2.23.07-1.03.39-2.06.24-3.05-.2-1.2-.6-2.55-1.55-3.4-1.03-.92-2.56-1.2-3.94-1.31-1.17-.08-2.34.42-3.47.63-.92.15-1.8.5-2.73.5-.42 0-.92 0-1.24-.25s-.42-.7-.53-1.1c-.18-.85-.04-1.7-.07-2.55-.04-1.13.14-2.3-.14-3.4-.32-1.28-.82-2.66-1.84-3.5-1.03-.9-2.49-1.18-3.83-1.32-1.17-.14-2.34.21-3.5.36-.93.1-1.85.39-2.77.35-.46-.04-1.07 0-1.35-.35-.35-.36-.14-1-.25-1.46-.32-1.45-.35-3.12-1.3-4.28-.79-1-2.17-1.42-3.34-1.88-.64-.25-1.28-.36-1.95-.5-.1-.03-.25-.07-.35-.07" style="fill:#ff5;fill-opacity:1;fill-rule:nonzero;stroke:none"/><path d="M150.02 153.14c-.81.04-1.6.6-1.87 1.38-.25.78.03 1.74.7 2.24L207 202.64c.67.5 1.67.53 2.37.04l22.75-15.95c.92-.6 1.2-1.95.57-2.83a2.07 2.07 0 0 0-2.84-.46l-21.57 15.13-56.98-44.97a2 2 0 0 0-1.28-.46" style="fill:#ff5;fill-opacity:1;fill-rule:nonzero;stroke:none"/><path d="M207.07 213.73v63.89l9.74-6.8.32-63.32z" style="fill:#000;fill-opacity:1;fill-rule:nonzero;stroke:none"/><path d="m148.5 167.88 21.01 16.87.29 54.42-21.3-14.49z" style="fill:#f55;fill-opacity:1;fill-rule:nonzero;stroke:none"/><path d="m169.8 183.83.6 56.23m5.31-52.02.29 57.33m26.64-34.61.29 68.35" style="fill:none;stroke:#000;stroke-width:1.98425198px;stroke-linecap:round;stroke-linejoin:round;stroke-opacity:1;stroke-dasharray:none"/><path d="m240.48 255.44-36.39 24.23" style="fill:none;stroke:#55a;stroke-width:1.98425198px;stroke-linecap:round;stroke-linejoin:round;stroke-opacity:1;stroke-dasharray:none"/><path d="m202.6 269.75-26.32-26.86 26.5-25.65-26.78-27.5" style="fill:none;stroke:#000;stroke-width:1.98425198px;stroke-linecap:round;stroke-linejoin:round;stroke-opacity:1;stroke-dasharray:none"/><path d="m191.87 201.19-16.05 16.4 26.79 27.93-15.17 14.17" style="fill:none;stroke:#000;stroke-width:1.98425198px;stroke-linecap:round;stroke-linejoin:round;stroke-opacity:1;stroke-dasharray:none"/><path d="m189.04 211.43-4.93 5.28 4.93 5.81 5.1-5.28zm-.14 27.67-4.3 4.71 4.86 4.93 4.32-4.6z" style="fill:none;stroke:#000;stroke-width:1.98425198px;stroke-linecap:round;stroke-linejoin:round;stroke-opacity:1;stroke-dasharray:none"/><path d="m176.88 197.68 4.9 5.35-5.15 5.42zm25.19 28.02-5.24 5.47 5.32 5.17zm-25.47-.03 4.82 5.25-4.93 4.53zm25.62 27.53-4.61 4.75 4.85 4.75z" style="fill:#000;fill-opacity:1;fill-rule:nonzero;stroke:#000;stroke-width:1.98425198px;stroke-linecap:round;stroke-linejoin:round;stroke-opacity:1;stroke-dasharray:none"/><path d="M132.94 129.5c-7.08 3.55-14.17 7.06-21.22 10.64-5.07 2.55-10.2 5.03-15.2 7.76a325 325 0 0 0-21.22 12.4c-6.45 4.18-12.48 8.93-18.75 13.43 4.15 5.53 8.19 11.12 12.4 16.62 3.58 4.64 7.48 9.07 10.95 13.78 3.23 4.36 6.13 8.96 9.18 13.43 2.48-.71 4.89-1.74 7.44-2.13 5-.74 10.13-.67 15.2-.35 4.04.25 8.04 1 12.01 1.77 4.29.85 8.61 1.74 12.76 3.19a81 81 0 0 1 12.36 5.67 124 124 0 0 1 13.08 8.47c4.53 3.3 9.1 6.62 13.07 10.6 3.87 3.85 6.95 8.42 10.28 12.75 3.61 4.75 6.84 9.81 10.6 14.49a95 95 0 0 0 8.1 9.18c4.08 3.9 8.33 7.61 13.12 10.6 4.4 2.8 9.25 4.88 14.14 6.72 4.67 1.81 9.5 3.55 14.49 4.26 4.89.7 9.88 0 14.84 0-2.72-5.57-5.63-10.99-8.14-16.62a239 239 0 0 1-8.47-21.58 193 193 0 0 1-5.67-20.87 228 228 0 0 1-3.2-21.9 238 238 0 0 1-1.05-16.62c-.18-6.13-.04-12.26 0-18.39.07-5.77.14-11.55.35-17.32.25-6.03.7-12.02 1.06-18.04" style="fill:none;stroke:#55a;stroke-width:1.98425198px;stroke-linecap:round;stroke-linejoin:round;stroke-opacity:1;stroke-dasharray:none"/><path d="m189.92 355.57-37.88-30.76.29-62.71 3.86-2.66 6.8 6.8 10.35 13.9 8.57 12.11 3.87 4.15 4.7 3.86zm-52.09-108.85L113 264.76l-2.38-4.75 21.3-16.87z" style="fill:#ff5;fill-opacity:1;fill-rule:nonzero;stroke:none"/><path d="m156.19 260-36.1 23.68-2.06-4.72 33.73-22.21z" style="fill:#ff5;fill-opacity:1;fill-rule:nonzero;stroke:none"/><path d="m142.87 331.62.32-63.04-24 15.7 3.87 17.75 2.66 17.15.6 15.98-.32 8.58z" style="fill:#f55;fill-opacity:1;fill-rule:nonzero;stroke:none"/><path d="m152.33 256.75-34.3 22.78s-2.41-6.1-3.55-9.18c-.7-1.84-2.09-5.6-2.09-5.6l25.44-18.35s6.49 2.13 9.18 4.15c2.2 1.63 5.32 6.2 5.32 6.2M212 372.26l-59.25-47.27L126 342l.25 14-.75 13.25-.5 10.49 27.26-18.5 35 28.77 4.5 2.23 2.48 2.27 4 .5 2.28 3.26 2.97-.78 3.01 3.75h3.02l2.48 2.27z" style="fill:#000;fill-opacity:1;fill-rule:nonzero;stroke:none"/><path d="m221.99 408.5.25-89-6-2.23-4.99-2.77.25 89.26 3.26.5 3.22 3.26 2.02-.78z" style="fill:#000;fill-opacity:1;fill-rule:nonzero;stroke:none"/><path d="m100 331.76-20.24 10s-3.9-11.06-6.02-16.52c-2.13-5.46-4.04-11.02-6.74-16.23-1.8-3.5-3.82-6.9-6.27-10.03-2.34-3-7.97-8.22-7.97-8.22l.25-78.52s9.88 11.98 14 18.5c3.57 5.7 6.3 11.94 9.24 18 3.83 7.94 7.9 15.77 10.99 24.02 2.09 5.53 3.54 11.27 5 16.98q2.34 8.94 4 18c.81 4.39 1.3 8.85 2.02 13.25.56 3.61 1.73 10.77 1.73 10.77" style="fill:#f55;fill-opacity:1;fill-rule:nonzero;stroke:#55a;stroke-width:1.98425198px;stroke-linecap:round;stroke-linejoin:round;stroke-opacity:1;stroke-dasharray:none"/><path d="m96.24 390.5-27.25-14.73 2.76-10.28-.99-9.99-3.01-6.73 8-6.03 13.75-5.98 10.24-4.26 1 10v12l-.75 14-2.23 15.74z" style="fill:#ff5;fill-opacity:1;fill-rule:nonzero;stroke:none"/><path d="m133.51 243.25-22.75 17s-3.96-8.68-6.02-13c-1.63-3.44-5-10.24-5-10.24s11.1-.7 16.52.25c5.98 1.06 17.25 5.99 17.25 5.99" style="fill:#55a;fill-opacity:1;fill-rule:nonzero;stroke:none"/><path d="m30.01 157.25 16.87 14.64-.25 279.74-16.62.1z" style="fill:#000;fill-opacity:1;fill-rule:nonzero;stroke:none"/><path d="m264.01 391.4-.18-66.83 6.91-2.13s11.2 15.63 16.94 23.35c4.18 5.56 8.68 10.91 12.76 16.62.99 1.38 2.83 4.22 2.83 4.22s-11.09 8.07-16.8 11.87a247 247 0 0 1-12.4 7.58 333 333 0 0 1-10.06 5.31" style="fill:#55a;fill-opacity:1;fill-rule:nonzero;stroke:none"/><path d="m247.75 399.5.35-74.22s5.53.28 8.3.17c2.86-.14 8.5-.88 8.5-.88l-.18 66.82s-6.3 3.4-9.53 4.93c-2.45 1.17-7.44 3.19-7.44 3.19" style="fill:#000;fill-opacity:1;fill-rule:nonzero;stroke:none"/><path d="M154.77 475.87c7.05-.11 14.14.1 21.2-.36a193 193 0 0 0 17.5-1.91c3.82-.6 7.54-1.56 11.33-2.3.57-4.15 1.2-8.26 1.77-12.37.6-4.68 1.1-9.32 1.74-14 .5-3.47.78-6.98 1.6-10.41.5-2.06 1.3-4 1.94-6.03l2.66-.35c.89.88 1.45 2.3 2.66 2.66 1.6.5 3.47-.08 4.96-.9 2.13-1.12 3.65-3.21 4.93-5.27a16 16 0 0 0 2.48-6.56 9 9 0 0 0-.71-4.42c-.46-1.03-1.1-2.17-2.13-2.66-1-.46-2.23 0-3.37 0-.56-.82-.95-1.8-1.73-2.45-1.2-.99-2.84-1.3-4.25-1.95-.78-.88-1.24-2.16-2.3-2.65-.93-.43-2.03 0-3.02 0-.88-.82-1.52-2.02-2.66-2.48-.92-.36-1.98 0-2.97 0-1.03-1.17-1.6-2.9-3.01-3.55-1.03-.42-2.24.15-3.37.18-.89-1.06-1.42-2.59-2.66-3.19-1.03-.46-2.23 0-3.36 0-1.1-.92-2.1-2.05-3.33-2.8a16 16 0 0 0-4.61-1.95 13 13 0 0 0-5.14-.35c-1.84.32-3.61 1.2-5.14 2.3a17 17 0 0 0-4.21 4.57 31 31 0 0 0-3.55 7.8c-1.6 4.92-2.09 10.1-3 15.2-1.18 6.63-2.03 13.32-3.2 19.98a925 925 0 0 1-3.68 19.78c-1.1 5.49-2.27 10.98-3.37 16.44" style="fill:#ff5;fill-opacity:1;fill-rule:nonzero;stroke:none"/><path d="m228.01 509.99-20.02-40s-10.17 2.69-15.38 3.54A198 198 0 0 1 168 476c-10 .32-20.02-.14-29.98-1-11.76-1.06-35-5.03-35-5.03l-23 40z" style="fill:#f55;fill-opacity:1;fill-rule:nonzero;stroke:#55a;stroke-width:1.98425198px;stroke-linecap:round;stroke-linejoin:round;stroke-opacity:1;stroke-dasharray:none"/><path d="M213.17 508.54 198 478.98c-6.48 2.27-11.4 2.34-19.7 3.26l3.9 26.3h5.74l-5.1-22.75c4.74-.32 8.5-.29 12.6-1.92l11.13 24.67zm-39.87 0-3.04-25.3c-10.07.92-18.15 1.48-28.2.46l-5.5 24.84H143l3.05-19.81c7.9.46 12.57-.04 19.2-.5l2.23 20.3zm-46.56 0 7.34-25.06c-7.37-.63-18.07-1.55-26.08-3.47l-13.71 28.53h6.34L111.01 485c4.47 1.2 12.01 1.73 16.48 2.37l-6.24 21.16z" style="fill:#55a;fill-opacity:1;fill-rule:nonzero;stroke:#55a;stroke-width:1.98425198px;stroke-linecap:round;stroke-linejoin:round;stroke-opacity:1;stroke-dasharray:none"/><path d="M154.98 475.02s3.48-16.66 5.04-25.02c1.8-9.96 2.9-20.1 5-30.01 1.37-6.73 1.59-14 4.99-19.99 2.3-4.1 5.42-8.78 9.99-9.99 4.43-1.17 10.2.18 13.25 3.58 2.55 2.87 3.08 7.8 1.74 11.41-1.42 3.93-5.28 8.33-9.46 8.19-4.36-.15-9.18-4.9-9.25-9.22-.04-3.9 4.18-8.25 8.08-8.5 2.4-.18 5.31 2.12 5.63 4.53.4 2.8-2.16 6.84-5 6.8-1.7 0-4-1.98-2.93-4.14" style="fill:none;stroke:#55a;stroke-width:1.98425198px;stroke-linecap:round;stroke-linejoin:round;stroke-opacity:1;stroke-dasharray:none"/><path d="M160.83 475.83c2.94-8.96 3.69-18.07 5.24-27.18 1.6-9.03 2.02-18.24 4.15-27.17 1.7-7.09 3.61-14.64 6.8-20.77m-9.49 75.12c2.23-7.8 2.9-16.05 4.14-24.1 1.2-7.86 1.63-15.87 3.16-23.66 1.1-5.67 1.91-11.34 4.32-16.7m-5.67 64.07c1.98-7.44 2.59-15.34 3.69-23.03 1.06-7.51 1.45-15.2 2.8-22.64.99-5.39 1.7-10.84 3.86-15.95m-4.53 60.98c1.8-7.08 2.33-14.56 3.32-21.9.96-7.12 1.31-14.38 2.52-21.47.88-5.13 1.52-10.3 3.47-15.13M185 474.27c1.77-6.73 2.33-13.85 3.3-20.8.98-6.8 1.3-13.71 2.54-20.44.89-4.9 1.53-9.78 3.47-14.39m-2.94 54.75c1.74-6.31 2.13-12.58 3.05-18.85.92-6.35 1.28-12.76 2.48-19.03.85-4.54 1.45-9.1 3.37-13.4m-2.73 50.35c1.66-5.74 2.16-11.8 3.05-17.71.88-5.78 1.2-11.66 2.3-17.4.81-4.15 1.42-8.33 3.19-12.26m-1.56 45.43c1.42-5.14 1.84-10.2 2.59-15.35.78-5.17 1.02-10.45 1.98-15.59.67-3.72 1.17-7.47 2.7-10.98m-27.22-15.8c1.63 1.13 3.08 3.08 5.03 3.15 3.23.1 6.42-2.06 8.5-4.47a14 14 0 0 0 3.34-9.67 9.2 9.2 0 0 0-3.3-6.55c-.95-.71-2.02-.54-3.58-.68" style="fill:none;stroke:#55a;stroke-width:1.98425198px;stroke-linecap:round;stroke-linejoin:round;stroke-opacity:1;stroke-dasharray:none"/><path d="M191.06 416.02c1.34 1.49 2.37 2.66 3.96 2.76 3.23.18 6.42-2.05 8.5-4.5a13.7 13.7 0 0 0 3.34-9.63c-.14-2.45-1.2-5.28-3.3-6.56-.99-.6-1.87-.7-3.47.07" style="fill:none;stroke:#55a;stroke-width:1.98425198px;stroke-linecap:round;stroke-linejoin:round;stroke-opacity:1;stroke-dasharray:none"/><path d="M195.94 419c1.63 1.1 3.09 3.08 5.04 3.15 3.22.1 6.41-2.06 8.5-4.5a13.7 13.7 0 0 0 3.33-9.64c-.14-2.44-1.2-5.24-3.3-6.55-.88-.57-1.62-.6-3.18-.07" style="fill:none;stroke:#55a;stroke-width:1.98425198px;stroke-linecap:round;stroke-linejoin:round;stroke-opacity:1;stroke-dasharray:none"/><path d="M202.68 422.36c1.24 1.77 2.48 2.66 4.14 2.77 3.2.14 6.42-2.06 8.5-4.5a14 14 0 0 0 3.34-9.64c-.18-2.45-1.31-5.14-3.3-6.56-.92-.63-1.63-.85-3.36-.46" style="fill:none;stroke:#55a;stroke-width:1.98425198px;stroke-linecap:round;stroke-linejoin:round;stroke-opacity:1;stroke-dasharray:none"/><path d="M208.38 425.73a4.5 4.5 0 0 0 3.76 2.62c3.19.21 6.41-2.05 8.47-4.46a14 14 0 0 0 3.36-9.68c-.17-2.44-1.3-5.1-3.33-6.52-.74-.56-1.17-.25-2.73-.39" style="fill:none;stroke:#55a;stroke-width:1.98425198px;stroke-linecap:round;stroke-linejoin:round;stroke-opacity:1;stroke-dasharray:none"/><path d="M214.33 428.31c.6 1.78 1.78 2.38 3.09 2.49 3.19.31 6.41-2.02 8.5-4.47a14.5 14.5 0 0 0 3.33-9.64c-.03-1.8-.64-3.82-1.98-5-1.07-.95-2.55-.99-4.11-1.1m-119.94 58.93c.85-10.17 1.45-20.3 2.51-30.43.57-5.53 1.07-11.1 2.02-16.59 1.31-7.26 1.63-14.98 5-21.54 2.05-3.97 5.35-7.3 8.86-10a30 30 0 0 1 10.91-5.45 29 29 0 0 1 12.72-.25c4.15.89 7.83 3.23 11.55 5.25 4.68 2.51 8.93 5.74 13.4 8.6m-13.15 57.02c-3.93 1.13-7.76 2.76-11.8 3.4-2.62.4-5.42.92-7.97.21-1.28-.35-3.58-1.38-3.4-2.16.1-.39.74-.32 1.13-.32 1.49-.03 2.83.93 4.32 1.14 2.16.28 4.4.21 6.6 0 3.75-.4 7.4-1.53 11.12-2.27M135 447.84c-.46.5-1.74.92-1.35 1.45.46.75 3.3 2.55 5.21 3.3 1.8.7 3.8.99 5.78 1.02a22 22 0 0 0 6.16-.78c1.39-.39 2.48-.99 4.04-1.66" style="fill:none;stroke:#55a;stroke-width:1.98425198px;stroke-linecap:round;stroke-linejoin:round;stroke-opacity:1;stroke-dasharray:none"/><path d="M159.2 446.56c-3.33.85-6.59 2.13-10 2.52-2.4.28-4.88.35-7.26-.1a16 16 0 0 1-5.49-2.2 14 14 0 0 1-2.69-2.8c1.63-.71 3.15-1.74 4.89-2.17 2.73-.7 5.6-.99 8.4-.67 2.37.25 4.64 1.17 6.8 2.16 1.91.85 3.54 2.2 5.35 3.26" style="fill:none;stroke:#55a;stroke-width:1.98425198px;stroke-linecap:round;stroke-linejoin:round;stroke-opacity:1;stroke-dasharray:none"/><path d="M150.8 448.05c-.1-1.17.32-2.48-.24-3.5-.68-1.25-2.06-2.06-3.4-2.52a5.5 5.5 0 0 0-3.3 0 5 5 0 0 0-2.38 2.05c-.74 1.24-.6 2.8-.92 4.22" style="fill:none;stroke:#55a;stroke-width:1.98425198px;stroke-linecap:round;stroke-linejoin:round;stroke-opacity:1;stroke-dasharray:none"/><path d="M147.01 447.24c.32-.36.18-1.03-.07-1.42-.28-.46-.81-.82-1.31-.82a1.5 1.5 0 0 0-1.31.75c-.32.46-.5 1.24-.1 1.63.67.64 2.19.5 2.8-.14m4.1-11.09c-2.37.46-5.7.99-8.4 2.02-2.37.92-4.64 2.69-6.7 3.64" style="fill:#55a;fill-opacity:1;fill-rule:nonzero;stroke:#55a;stroke-width:1.98425198px;stroke-linecap:round;stroke-linejoin:round;stroke-opacity:1;stroke-dasharray:none"/><path d="M122.85 453.5c.6-1.48 1.52-2.86 1.84-4.42.57-3.19.14-6.52-.25-9.78-.46-3.97-1.91-7.83-2.59-11.8-.42-2.27-1.45-4.64-.92-6.9.25-1.14 1.1-2.06 1.92-2.84 1.02-.96 2.44-1.46 3.65-2.17m9.63 13.15c1.56-1.7 3.83-2.94 4.68-5.1a4.4 4.4 0 0 0 0-3.3 4.6 4.6 0 0 0-2.98-2.48c-1.02-.25-2.12.32-3.04.78-1.2.64-1.88 2.06-3.09 2.62-.85.43-1.9.93-2.83.57-.28-.1-.64-.5-.57-.78.32-1.03 1.99-.78 2.94-1.13 1.32-.5 2.6-.92 3.87-1.38" style="fill:none;stroke:#55a;stroke-width:1.98425198px;stroke-linecap:round;stroke-linejoin:round;stroke-opacity:1;stroke-dasharray:none"/><path d="M143.68 407.55c-1.6.82-3.86.64-5.77.6-1.99-.03-3.9-.95-5.85-.88-2.23.1-4.29 1.6-6.56 1.6-1.63.03-3.5-.72-4.78-1.07.07-.57.25-1.31 0-1.74 1.63.6 3.97 1.5 5.99 1.24 1.91-.24 3.3-2.44 5.24-2.48 2.24-.07 3.97 2.48 6.24 2.59 2.16.07 4.43-1.63 6.13-2.02-.46.64-.67 1.7-.64 2.16" style="fill:#55a;fill-opacity:1;fill-rule:nonzero;stroke:#55a;stroke-width:1.98425198px;stroke-linecap:round;stroke-linejoin:round;stroke-opacity:1;stroke-dasharray:none"/><path d="M139.75 400.6c-1.6-.67-3.08-1.7-4.79-2.01a10 10 0 0 0-3.86.03c-.85.14-1.63.57-2.44.89-.75.32-1.46.7-2.2 1.03m1.77-4.93a9 9 0 0 0 3.44.92c1 0 1.91-.39 2.83-.81" style="fill:none;stroke:#55a;stroke-width:1.98425198px;stroke-linecap:round;stroke-linejoin:round;stroke-opacity:1;stroke-dasharray:none"/><path d="M121.71 456.45c-1.56 1.84-5 2.3-7.69 2.51-1.98.15-3.93-.39-5.84-.95-1.35-.4-2.66-1.14-3.94-1.74 2.17.43 4.4 1.2 6.63 1.28 1.95.03 3.9-.36 5.81-.78a16 16 0 0 0 3.8-1.6c.49-.28 1.62.82 1.23 1.28" style="fill:#55a;fill-opacity:1;fill-rule:nonzero;stroke:#55a;stroke-width:1.98425198px;stroke-linecap:round;stroke-linejoin:round;stroke-opacity:1;stroke-dasharray:none"/><path d="M122.28 449.65c-1.56.78-2.98 1.84-4.64 2.26-2.34.68-4.9 1-7.27.57-1.59-.28-2.94-1.35-4.43-1.98m17.36-4.15a27 27 0 0 1-12.47 1.52 10 10 0 0 1-3.86-1.1c-.7-.42-1.17-1.2-1.77-1.8l.36-2.73c1.16-.43 2.33-1.03 3.57-1.24 1.67-.32 3.44-.32 5.14-.21 1.84.1 3.72.21 5.46.88 1.3.53 2.48 1.42 3.58 2.34.35.32.63.68.95 1.03-.32.42-.46 1.1-.95 1.31" style="fill:none;stroke:#55a;stroke-width:1.98425198px;stroke-linecap:round;stroke-linejoin:round;stroke-opacity:1;stroke-dasharray:none"/><path d="M118.91 447.1c-.07-1.17.32-2.49-.24-3.51a6 6 0 0 0-3.4-2.52 5 5 0 0 0-3.3 0 4.8 4.8 0 0 0-2.38 2.06c-.74 1.2-.6 2.8-.92 4.18" style="fill:none;stroke:#55a;stroke-width:1.98425198px;stroke-linecap:round;stroke-linejoin:round;stroke-opacity:1;stroke-dasharray:none"/><path d="M115.44 446.24c.32-.35.18-.99-.07-1.41a2 2 0 0 0-1.31-.82c-.53 0-1.06.32-1.31.75-.32.46-.5 1.27-.1 1.66.66.6 2.15.5 2.8-.18" style="fill:#55a;fill-opacity:1;fill-rule:nonzero;stroke:#55a;stroke-width:1.98425198px;stroke-linecap:round;stroke-linejoin:round;stroke-opacity:1;stroke-dasharray:none"/><path d="M122.5 440.93c-1.28-1.38-2.31-3.01-3.8-4.18-1.2-.92-2.66-1.42-4-2.13" style="fill:none;stroke:#55a;stroke-width:1.98425198px;stroke-linecap:round;stroke-linejoin:round;stroke-opacity:1;stroke-dasharray:none"/><path d="M106.44 431.4a24 24 0 0 0-2.62-7.02c-1.28-2.12-2.73-4.25-4.78-5.63-1.63-1.06-3.62-1.92-5.57-1.74-1.77.14-3.65 1-4.75 2.41s-1.27 3.47-1.16 5.28c.1 1.63.56 3.4 1.66 4.64a6 6 0 0 0 3.86 2.06c1.03.1 2.2-.07 2.94-.78.57-.53.78-1.45.78-2.23-.03-.85.07-1.74-.99-2.34.78.32 1.31 1.3 1.88 2.05a20 20 0 0 1 1.91 3.51 30 30 0 0 1 1.5 4.36c.52 2.02.91 4.1 1.34 6.13.7 3.22 1.52 7.09 2.05 9.64.57-5.53 1.35-14.78 1.95-20.34" style="fill:#ff5;fill-opacity:1;fill-rule:nonzero;stroke:#55a;stroke-width:1.98425198px;stroke-linecap:round;stroke-linejoin:round;stroke-opacity:1;stroke-dasharray:none"/><path d="M109.17 411.41a49 49 0 0 0-4.86-12.36 19 19 0 0 0-4.78-5.64c-1.6-1.17-3.47-2.48-5.46-2.34-1.87.15-3.75 1.46-4.85 3.02-1.03 1.45-1.28 3.47-1.17 5.24.1 1.67.57 3.44 1.67 4.68a6.3 6.3 0 0 0 3.9 2.05c.99.1 2.16-.1 2.9-.78.57-.53.81-1.45.78-2.23-.07-.81-.04-1.56-1.06-2.16.78.32 1.38 1.13 1.95 1.84.81 1.07 1.38 2.3 1.94 3.51.6 1.42 1 2.94 1.46 4.4.53 1.73 1.02 3.5 1.56 5.24 1.16 4.1 2.97 9.7 3.5 12.26.57-5.53 1.95-11.16 2.52-16.73" style="fill:#ff5;fill-opacity:1;fill-rule:nonzero;stroke:#55a;stroke-width:1.98425198px;stroke-linecap:round;stroke-linejoin:round;stroke-opacity:1;stroke-dasharray:none"/><path d="M111.4 403.58s-.92-2.87-1.56-4.21a55 55 0 0 0-2.62-4.36s-3.22-1.45-4.89-2.06c-1.56-.56-4.75-1.45-4.75-1.45s3.69 2.87 5.14 4.68a26 26 0 0 1 3.05 5.24c.81 1.77 1.38 3.69 2.02 5.56a169 169 0 0 1 1.56 5.07s.56-3.33.99-5c.28-1.16 1.06-3.47 1.06-3.47" style="fill:#ff5;fill-opacity:1;fill-rule:nonzero;stroke:#55a;stroke-width:1.98425198px;stroke-linecap:round;stroke-linejoin:round;stroke-opacity:1;stroke-dasharray:none"/><path d="m107.22 395 6.8 3.9-2.62 4.75zm70.38-4.2-24.92-20.7-28.06 18.46.67-8.97 27.04-18.6 35.11 28.99a13.2 13.2 0 0 0-9.85.81" style="fill:#ff5;fill-opacity:1;fill-rule:nonzero;stroke:#55a;stroke-width:1.98425198px;stroke-linecap:round;stroke-linejoin:round;stroke-opacity:1;stroke-dasharray:none"/><path d="m247.75 381.47-9.36-10.6 9.18-9.7" style="fill:none;stroke:#55a;stroke-width:1.98425198px;stroke-linecap:round;stroke-linejoin:round;stroke-opacity:1;stroke-dasharray:none"/><path d="m247.4 375.06-3.37-3.9 3.36-3.5" style="fill:none;stroke:#55a;stroke-width:1.98425198px;stroke-linecap:round;stroke-linejoin:round;stroke-opacity:1;stroke-dasharray:none"/><path d="m234.5 393.48 9.35-9.7-9-9.89-9.1 9.89zm.17-4.18-5.35-5 5.35-5.87 5.18 5.17z" style="fill:#55a;fill-opacity:1;fill-rule:nonzero;stroke:#55a;stroke-width:1.98425198px;stroke-linecap:round;stroke-linejoin:round;stroke-opacity:1;stroke-dasharray:none"/><path d="m30.01 487.98 37.99-36H30z" style="fill:#ff5;fill-opacity:1;fill-rule:nonzero;stroke:#55a;stroke-width:1.98425198px;stroke-linecap:round;stroke-linejoin:round;stroke-opacity:1;stroke-dasharray:none"/><path d="m30.01 480.01 23-22H30z" style="fill:#f55;fill-opacity:1;fill-rule:nonzero;stroke:#55a;stroke-width:1.98425198px;stroke-linecap:round;stroke-linejoin:round;stroke-opacity:1;stroke-dasharray:none"/><path d="m248.31 355.89-9.35-10.63 9.18-9.7" style="fill:none;stroke:#55a;stroke-width:1.98425198px;stroke-linecap:round;stroke-linejoin:round;stroke-opacity:1;stroke-dasharray:none"/><path d="m247.96 349.44-3.37-3.86 3.37-3.54m-25.12 38.33 9.18-9.85-9.18-9.7" style="fill:none;stroke:#55a;stroke-width:1.98425198px;stroke-linecap:round;stroke-linejoin:round;stroke-opacity:1;stroke-dasharray:none"/><path d="m223.02 374.7 3.36-3.9-3.36-3.5m.53-30.97 8.6 9.28-9.17 9.71" style="fill:none;stroke:#55a;stroke-width:1.98425198px;stroke-linecap:round;stroke-linejoin:round;stroke-opacity:1;stroke-dasharray:none"/><path d="m223.16 341.43 3.33 3.87-3.33 3.54" style="fill:none;stroke:#55a;stroke-width:1.98425198px;stroke-linecap:round;stroke-linejoin:round;stroke-opacity:1;stroke-dasharray:none"/><path d="m235.49 367.72 9.35-9.7-9-9.89-9.5 10.06zm.18-4.18-5.36-5 5.36-5.87 5.17 5.17zm-.57-21.19 9.32-9.7-9-9.57-9.68 9.35zm.14-4.18-5.35-5 5.35-5.87 5.2 5.13z" style="fill:#55a;fill-opacity:1;fill-rule:nonzero;stroke:#55a;stroke-width:1.98425198px;stroke-linecap:round;stroke-linejoin:round;stroke-opacity:1;stroke-dasharray:none"/><path d="m222.63 387.7 8.4 9.08-7.84 8.4" style="fill:none;stroke:#55a;stroke-width:1.98425198px;stroke-linecap:round;stroke-linejoin:round;stroke-opacity:1;stroke-dasharray:none"/><path d="m222.77 392.99 3.36 3.5-2.76 3.34m23.99-14.03-9.96 10.41 5.74 6.06" style="fill:none;stroke:#55a;stroke-width:1.98425198px;stroke-linecap:round;stroke-linejoin:round;stroke-opacity:1;stroke-dasharray:none"/><path d="m247 392.2-3.36 3.9 3.36 3.55" style="fill:none;stroke:#55a;stroke-width:1.98425198px;stroke-linecap:round;stroke-linejoin:round;stroke-opacity:1;stroke-dasharray:none"/><path d="m248.24 329.7-3.86-4.6m-21.86 4.82 7.09-7.3m18.24 76.6.68-74.12m-26.23 83.16.22-88.9" style="fill:#f55;fill-opacity:1;fill-rule:nonzero;stroke:#55a;stroke-width:1.98425198px;stroke-linecap:round;stroke-linejoin:round;stroke-opacity:1;stroke-dasharray:none"/><path d="m238.82 403.83-4.4-4.4-8.46 8.44 1.34 2.3z" style="fill:#55a;fill-opacity:1;fill-rule:nonzero;stroke:#55a;stroke-width:1.98425198px;stroke-linecap:round;stroke-linejoin:round;stroke-opacity:1;stroke-dasharray:none"/><path d="M53 451.98v-70.97L46.99 379v73zM46.98 172v202h6.03V170L30 150v7z" style="fill:#ff5;fill-opacity:1;fill-rule:nonzero;stroke:#55a;stroke-width:1.98425198px;stroke-linecap:round;stroke-linejoin:round;stroke-opacity:1;stroke-dasharray:none"/><path d="M38.52 450c1.17 0 2.48-1.31 2.48-2.52 0-1.17-1.31-2.48-2.48-2.48-1.2 0-2.52 1.31-2.52 2.48 0 1.2 1.31 2.52 2.52 2.52m0-14c1.17 0 2.48-1.3 2.48-2.51 0-1.17-1.31-2.48-2.48-2.48-1.2 0-2.52 1.3-2.52 2.48 0 1.2 1.31 2.51 2.52 2.51m-3.02 6.98c1.17 0 2.48-1.3 2.48-2.48 0-1.17-1.3-2.51-2.48-2.51-1.17 0-2.51 1.34-2.51 2.51s1.34 2.48 2.51 2.48m6 0c1.16 0 2.5-1.3 2.5-2.48 0-1.17-1.34-2.51-2.5-2.51-1.18 0-2.49 1.34-2.49 2.51s1.31 2.48 2.48 2.48m-3.15-41.74c1.2 0 2.51-1.3 2.51-2.51 0-1.17-1.3-2.48-2.51-2.48-1.17 0-2.48 1.3-2.48 2.48 0 1.2 1.3 2.51 2.48 2.51m0-13.99c1.2 0 2.51-1.35 2.51-2.52s-1.3-2.48-2.51-2.48c-1.17 0-2.48 1.31-2.48 2.48s1.3 2.52 2.48 2.52m-2.98 6.98c1.17 0 2.48-1.31 2.48-2.48 0-1.2-1.3-2.52-2.48-2.52-1.2 0-2.51 1.31-2.51 2.52 0 1.17 1.3 2.48 2.51 2.48m5.99 0c1.17 0 2.52-1.31 2.52-2.48 0-1.2-1.35-2.52-2.52-2.52s-2.52 1.31-2.52 2.52c0 1.17 1.35 2.48 2.52 2.48m-2.8-41.78c1.17 0 2.48-1.3 2.48-2.48 0-1.2-1.31-2.51-2.48-2.51s-2.51 1.3-2.51 2.51c0 1.17 1.34 2.48 2.51 2.48m0-13.99c1.17 0 2.48-1.31 2.48-2.48 0-1.2-1.31-2.52-2.48-2.52s-2.51 1.31-2.51 2.52c0 1.17 1.34 2.48 2.51 2.48m-3.01 7.01c1.17 0 2.52-1.34 2.52-2.51s-1.35-2.48-2.52-2.48-2.48 1.3-2.48 2.48c0 1.17 1.31 2.51 2.48 2.51m5.99 0c1.2 0 2.51-1.34 2.51-2.51s-1.3-2.48-2.51-2.48c-1.17 0-2.48 1.3-2.48 2.48 0 1.17 1.3 2.51 2.48 2.51m-2.8-42.55c1.17 0 2.51-1.31 2.51-2.48 0-1.2-1.34-2.52-2.51-2.52s-2.48 1.31-2.48 2.52c0 1.17 1.3 2.48 2.48 2.48m0-14c1.17 0 2.51-1.31 2.51-2.51 0-1.17-1.34-2.48-2.51-2.48s-2.48 1.3-2.48 2.48c0 1.2 1.3 2.51 2.48 2.51m-2.98 7.02c1.17 0 2.48-1.35 2.48-2.52s-1.3-2.51-2.48-2.51c-1.2 0-2.51 1.34-2.51 2.51s1.3 2.52 2.51 2.52m5.99 0c1.17 0 2.48-1.35 2.48-2.52s-1.31-2.51-2.48-2.51-2.52 1.34-2.52 2.51 1.35 2.52 2.52 2.52m-3.01-41.42c1.17 0 2.51-1.32 2.51-2.48 0-1.17-1.34-2.52-2.51-2.52s-2.48 1.35-2.48 2.52c0 1.16 1.3 2.48 2.48 2.48m0-14c1.17 0 2.51-1.31 2.51-2.48 0-1.2-1.34-2.52-2.51-2.52s-2.48 1.31-2.48 2.52c0 1.17 1.3 2.48 2.48 2.48m-2.98 7.02c1.17 0 2.48-1.32 2.48-2.52 0-1.17-1.3-2.48-2.48-2.48-1.2 0-2.51 1.31-2.51 2.48 0 1.2 1.3 2.52 2.51 2.52m5.99 0c1.17 0 2.48-1.32 2.48-2.52 0-1.17-1.31-2.48-2.48-2.48s-2.52 1.31-2.52 2.48c0 1.2 1.35 2.52 2.52 2.52m-2.44-41.6c1.2 0 2.51-1.31 2.51-2.48 0-1.2-1.31-2.52-2.51-2.52-1.17 0-2.49 1.31-2.49 2.52 0 1.17 1.32 2.48 2.49 2.48m0-14c1.2 0 2.51-1.31 2.51-2.48 0-1.2-1.31-2.52-2.51-2.52-1.17 0-2.49 1.32-2.49 2.52 0 1.17 1.32 2.48 2.49 2.48m-2.98 7.02c1.17 0 2.48-1.35 2.48-2.52s-1.31-2.48-2.48-2.48-2.52 1.31-2.52 2.48 1.35 2.52 2.52 2.52m5.98 0c1.18 0 2.52-1.35 2.52-2.52s-1.34-2.48-2.51-2.48-2.48 1.31-2.48 2.48 1.3 2.52 2.48 2.52M45 413v5l-13 12.02v-5.04zm0-8v5l-13 12v-4.99zm0-41.99v5l-13 11.97v-5zm0-8.01v5l-13 12.01v-5zm0-41.98v5l-13 11.97v-5zm0-8.02v5l-13 12.02v-5.04zm0-40v5l-13 12.01v-5zm0-8v5l-13 12v-5zm0-39.02v5.04l-13 11.97v-5zm0-7.97v5l-13 11.97v-5zm-.14-38.27.14 1.24L32 185v-5l9.99-9.89zm-6.63-5.24 2.41 1.98-8.64 8.5V172z" style="fill:#ff5;fill-opacity:1;fill-rule:nonzero;stroke:none"/><path d="m112.5 369.04 9.35-9.75-9-9.88-9.67 9.7zm.18-4.22-5.35-5 5.35-5.84 5.17 5.13zm-3.9 31.71 10.52-8.47-7.69-10.95-10.8 8.4zm.67-4.14-4.64-5.64 6.06-5.14 4.46 5.78zm3.4-49.22 8.26-9.92-10.03-8.22-8.36 9.92zm-.28-3.9-5.85-4.07 4.68-5.96 5.7 4.26zm-2.17-19.49 7.84-10.98-10.35-8.5-8.18 11.01zm-.45-4.18-6.02-4.14 4.42-6.6 5.89 4.33zm-3.72-21.61 6.02-12.05-11.51-6.8-6.38 12.15zm-1.1-4.04-6.6-3.19 3.38-7.2 6.48 3.37zm-6.17-21.37 4.9-12.58-12.12-5.67-5.21 12.69zm-1.48-3.93-6.84-2.55 2.66-7.48 6.76 2.73zm-9.25-21.72 2.4-13.25-12.96-3.3-2.7 13.43zm-2.2-3.58-7.23-1.2 1.24-7.84 7.16 1.42zm-11.27-20.13 1.28-13.42-13.22-2.17-1.52 13.65zm-2.48-3.4-7.3-.56.54-7.94 7.26.81z" style="fill:#55a;fill-opacity:1;fill-rule:nonzero;stroke:#55a;stroke-width:1.98425198px;stroke-linecap:round;stroke-linejoin:round;stroke-opacity:1;stroke-dasharray:none"/><path d="m98.75 381.22 10.2-8.18-8.07-10" style="fill:none;stroke:#55a;stroke-width:1.98425198px;stroke-linecap:round;stroke-linejoin:round;stroke-opacity:1;stroke-dasharray:none"/><path d="m99.53 376.02 3.76-3.3-2.94-3.61m-2.84 21.39s1.45-12.32 1.99-18.49c.74-8.57 1.84-17.15 1.73-25.76-.07-7.55-1.03-15.02-1.98-22.5-1.03-7.97-2.2-15.9-4-23.74a225 225 0 0 0-7.52-25.76 205 205 0 0 0-9.5-22.25 242 242 0 0 0-12.71-22.75C61.97 223.65 54 213 54 213m70.97 150.86-10.63 11.34 9.5 11.41" style="fill:none;stroke:#55a;stroke-width:1.98425198px;stroke-linecap:round;stroke-linejoin:round;stroke-opacity:1;stroke-dasharray:none"/><path d="m124.55 370.38-4.54 4.75 4.18 5.17m-22.71-24.87 8.54-8.22-7.9-8.68" style="fill:none;stroke:#55a;stroke-width:1.98425198px;stroke-linecap:round;stroke-linejoin:round;stroke-opacity:1;stroke-dasharray:none"/><path d="m101.8 350.57 3.15-3.26-2.9-3.15m23.88-10.2-10.24 11.69 9.85 11.09" style="fill:none;stroke:#55a;stroke-width:1.98425198px;stroke-linecap:round;stroke-linejoin:round;stroke-opacity:1;stroke-dasharray:none"/><path d="m125.72 340.48-4.36 4.92 4.36 5m-2.55-41.74-8.97 12.68 10.91 10.03" style="fill:none;stroke:#55a;stroke-width:1.98425198px;stroke-linecap:round;stroke-linejoin:round;stroke-opacity:1;stroke-dasharray:none"/><path d="m123.63 315.18-3.83 5.31 4.85 4.57m-6.23-41.74-7.44 13.64 12.04 8.69" style="fill:none;stroke:#55a;stroke-width:1.98425198px;stroke-linecap:round;stroke-linejoin:round;stroke-opacity:1;stroke-dasharray:none"/><path d="m119.62 289.74-3.19 5.74 5.35 3.96M108 257.24l-5.31 14.64 13.18 6.77" style="fill:none;stroke:#55a;stroke-width:1.98425198px;stroke-linecap:round;stroke-linejoin:round;stroke-opacity:1;stroke-dasharray:none"/><path d="m110.16 263.4-2.3 6.17 5.88 3.12m-18.28-41.91-3.55 15.16 13.93 5.14" style="fill:none;stroke:#55a;stroke-width:1.98425198px;stroke-linecap:round;stroke-linejoin:round;stroke-opacity:1;stroke-dasharray:none"/><path d="m98.33 236.66-1.53 6.38 6.2 2.37" style="fill:none;stroke:#55a;stroke-width:1.98425198px;stroke-linecap:round;stroke-linejoin:round;stroke-opacity:1;stroke-dasharray:none"/><path d="m80.68 206.65-2.02 15.4 13.22 3.9" style="fill:none;stroke:#55a;stroke-width:2.05511808px;stroke-linecap:round;stroke-linejoin:round;stroke-opacity:1;stroke-dasharray:none"/><path d="m83.83 212.24-.92 6.49 5.92 1.84M62.79 183.3l.74 16.05 13.68 1.48" style="fill:none;stroke:#55a;stroke-width:2.05511808px;stroke-linecap:round;stroke-linejoin:round;stroke-opacity:1;stroke-dasharray:none"/><path d="m66.86 188.93.25 6.48 6.13.75" style="fill:none;stroke:#55a;stroke-width:2.05511808px;stroke-linecap:round;stroke-linejoin:round;stroke-opacity:1;stroke-dasharray:none"/><path d="M99.25 236.27c-4-6.7-7.8-13.47-12.01-20.02-5.39-8.44-10.88-16.8-16.98-24.73-5.17-6.74-11.02-12.87-16.5-19.28m5.48 7.51-5.74-.74" style="fill:none;stroke:#55a;stroke-width:1.98425198px;stroke-linecap:round;stroke-linejoin:round;stroke-opacity:1;stroke-dasharray:none"/><path d="m53.75 183.01 5.5 1.24-.5 14.5-5-1.25z" style="fill:#55a;fill-opacity:1;fill-rule:nonzero;stroke:#55a;stroke-width:1.98425198px;stroke-linecap:round;stroke-linejoin:round;stroke-opacity:1;stroke-dasharray:none"/><path d="m57.76 216.74.99-13-5-1.24m46.56 129.69 7.48-9.29-8.97-7.58" style="fill:none;stroke:#55a;stroke-width:1.98425198px;stroke-linecap:round;stroke-linejoin:round;stroke-opacity:1;stroke-dasharray:none"/><path d="m100.03 327.3 2.73-3.65-3.26-2.77M98 307.56l5.75-10.38-10.1-5.96" style="fill:none;stroke:#55a;stroke-width:1.98425198px;stroke-linecap:round;stroke-linejoin:round;stroke-opacity:1;stroke-dasharray:none"/><path d="m96.87 302.81 2.06-4.04-3.69-2.16m-3.75-13.39 4.85-10.85-10.56-5.1" style="fill:none;stroke:#55a;stroke-width:1.98425198px;stroke-linecap:round;stroke-linejoin:round;stroke-opacity:1;stroke-dasharray:none"/><path d="m89.96 278.54 1.7-4.18-3.86-1.84m-4.5-13.75 2.9-11.52-11.3-3.19" style="fill:none;stroke:#55a;stroke-width:1.98425198px;stroke-linecap:round;stroke-linejoin:round;stroke-opacity:1;stroke-dasharray:none"/><path d="m81 254.44.96-4.42-4.15-1.14m-6.48-13.14 1.56-11.8-11.6-1.85" style="fill:none;stroke:#55a;stroke-width:1.98425198px;stroke-linecap:round;stroke-linejoin:round;stroke-opacity:1;stroke-dasharray:none"/><path d="m68.53 231.7.42-4.5-4.21-.68" style="fill:none;stroke:#55a;stroke-width:1.98425198px;stroke-linecap:round;stroke-linejoin:round;stroke-opacity:1;stroke-dasharray:none"/><path d="M79.02 341.5c-3.2-8.75-5.82-17.71-9.54-26.25-2.33-5.39-4.6-10.92-7.97-15.73-2.23-3.2-5.35-5.67-8-8.5l.24 13.99 4.5-1-2.51 6.24 5.77.25-3.5 4.25 5.24.5-3.26 4.5 5.77.25-4 5 6.48.49-3.75 5 5.77.53-3.5 4.74 5 .75-3.27 5.49 7.02.25z" style="fill:#55a;fill-opacity:1;fill-rule:nonzero;stroke:#55a;stroke-width:1.98425198px;stroke-linecap:round;stroke-linejoin:round;stroke-opacity:1;stroke-dasharray:none"/><path d="M68 375.77c-2.34 2.51-6.2 3.15-9.5 4.18-1.77.53-3.65 1.1-5.5 1-2.08-.12-4.28-.54-6.02-1.75-.92-.67-1.9-1.63-1.98-2.76-.07-.85.6-1.7 1.24-2.23.6-.5 1.49-.57 2.27-.75 1.24-.35 2.62-.14 3.75-.74a5.3 5.3 0 0 0 2.41-2.55c.53-1.24.36-2.76.11-4.11a15 15 0 0 0-1.77-4.29l.25-14.28c2.83-.32 5.8-1.24 8.75-.99 1.73.14 3.68.35 5 1.49 2.37 2.12 3 5.67 3.75 8.75.7 3.19.96 6.56.5 9.74-.46 3.26-1.03 6.88-3.26 9.29m31.25-43.27a221 221 0 0 0-12.01 5.25 232 232 0 0 0-10 5.24c-3.11 1.7-6.73 3.58-9.24 5.25m29.76 42.52c-5.42-2.6-10.91-5.07-16.26-7.76-4.3-2.17-8.5-4.5-12.76-6.74" style="fill:#fff;fill-opacity:1;fill-rule:nonzero;stroke:#55a;stroke-width:1.98425198px;stroke-linecap:round;stroke-linejoin:round;stroke-opacity:1;stroke-dasharray:none"/><path d="M73.49 378.5s2.3-7.23 2.76-10.99c.46-3.82.6-7.72 0-11.51-.56-3.37-3.26-9.75-3.26-9.75L85.75 339l-5.5 9 6 6.02-6.49 7.23 5.99 8.26-5.25 4.25 3.26 9.99z" style="fill:#fff;fill-opacity:1;fill-rule:nonzero;stroke:#55a;stroke-width:1.98425198px;stroke-linecap:round;stroke-linejoin:round;stroke-opacity:1;stroke-dasharray:none"/><path d="M95.99 388.74 88.5 376.5l6.49-6.27-6.24-8.5 6.48-7.98L89.5 348l6.98-13.5" style="fill:none;stroke:#55a;stroke-width:1.98425198px;stroke-linecap:round;stroke-linejoin:round;stroke-opacity:1;stroke-dasharray:none"/><path d="m97.51 382.25-2.51-4 3.75-3.01m.75-10-3.02-3.75 3.26-4.25m.5-6.49-3.22-4.5 3.22-5" style="fill:none;stroke:#55a;stroke-width:1.98425198px;stroke-linecap:round;stroke-linejoin:round;stroke-opacity:1;stroke-dasharray:none"/><path d="m93.26 326.27-11.27 5.49s-3.4-11.45-5.49-17c-1.77-4.76-3.47-9.61-5.99-14-2.94-5.07-10.52-14-10.52-14V234.5s9.88 15.7 14 23.98A201 201 0 0 1 85 284.98a186 186 0 0 1 5.74 23.29c1.14 5.92 2.52 18 2.52 18m2.05 157.21s-.67-7.3-2.3-10.48a23 23 0 0 0-7.01-7.76 21 21 0 0 0-8.26-3.48c-2.44-.5-5-.24-7.48 0-1.7.15-5.03 1-5.03 1s3.23 1.02 4.25 2.23c2.24 2.55 2.56 6.27 3.51 9.5.96 3.22 1.17 6.62 2.27 9.77 1.1 3.2 2.09 6.63 4.25 9.25a11 11 0 0 0 4.5 3.23c1.03.42 3.3.53 3.3.53z" style="fill:#ff5;fill-opacity:1;fill-rule:nonzero;stroke:#55a;stroke-width:1.98425198px;stroke-linecap:round;stroke-linejoin:round;stroke-opacity:1;stroke-dasharray:none"/><path d="M90.5 490.54c-1.2-3.97-2.24-7.8-4.26-11.27-1.7-3.01-4.1-5.53-6.48-8.01-1.56-1.63-3.33-3.01-5-4.5" style="fill:none;stroke:#55a;stroke-width:1.98425198px;stroke-linecap:round;stroke-linejoin:round;stroke-opacity:1;stroke-dasharray:none"/><path d="M81.89 487.38c1.77-.95 5.7-.1 7.65.29 1.35-2.66 2.44-4.72 2.34-7.2m-11.58 2.38c1.76-.96 5.1-.68 7.04-.29 1.35-2.65 2.45-5.24 2.34-7.72m-11.66 1.84c1.81-.96 4.36-.25 6.31.14 1.35-2.65 1.06-5.06.96-7.54m-9.85 2.9c1.77-1 2.9-.07 4.85.32 1.35-2.66.64-3.69.53-6.17m9.18 25.3c-1.77-.28-3.54-.42-5.31.36" style="fill:none;stroke:#55a;stroke-width:1.98425198px;stroke-linecap:round;stroke-linejoin:round;stroke-opacity:1;stroke-dasharray:none"/><path d="M210.08 398.4c.85-.3 1.95-.88 2.06-1.8.1-.88-.89-1.66-1.63-2.16-.43-.28-1.03-.25-1.53-.42-.53-.18-1.24-.25-1.59-.75s-.1-1.24-.25-1.84c-.42-1.49-.6-3.26-1.73-4.29-1-.95-2.52-1.13-3.87-1.27-1.17-.11-2.34.28-3.47.42-.92.1-1.8.4-2.73.32-.46-.07-.95-.1-1.3-.39-.33-.28-.43-.74-.5-1.13-.22-.85-.08-1.74-.11-2.63-.04-1.13.18-2.3-.1-3.36-.36-1.28-.9-2.66-1.92-3.47-1.1-.85-2.62-1.1-4-1.17-1.17-.04-2.3.42-3.48.63-.88.18-1.73.54-2.65.5-.4 0-.85 0-1.14-.28-.18-.14-.18-.46-.21-.68-.07-.74.14-1.45.21-2.2.07-.99.43-2.01.25-3-.18-1.21-.53-2.56-1.38-3.44-.96-.96-2.45-1.38-3.8-1.63-1.16-.18-2.37.25-3.54.28-1.45 0-3.22.75-4.36-.18-.88-.7-.56-2.16-.77-3.26-.22-1.02-.11-2.09-.5-3-.5-1.14-1.13-2.35-2.16-2.98a5 5 0 0 0-2.98-.53c-.74.03-1.45.46-2.2.67-.6.18-1.27.78-1.87.53-.18-.07-.22-.32-.25-.5-.28-.6-.4-1.24-.6-1.87-.29-.78-.4-1.74-.96-2.38-.78-.92-1.88-1.8-3.08-1.8-1.17.03-2.27.92-3.01 1.8-.54.67-.57 1.6-.82 2.38-.21.6-.32 1.2-.53 1.8-.07.1-.07.29-.18.32-.14.1-.35.04-.53 0-.6-.14-1.13-.5-1.7-.7-.82-.29-1.56-.79-2.41-.86-1.13-.07-2.41-.03-3.3.64-1.02.74-1.52 2.13-1.8 3.37-.25 1.02.07 2.05.1 3.11.04.71.22 1.46.11 2.2-.04.18 0 .4-.14.5-.29.25-.75.14-1.1.14-.82-.04-1.6-.28-2.37-.5-1.07-.35-2.02-1.2-3.12-1.27-.96-.04-2.34 0-2.77.85-.46.85.29 2.02.93 2.73.95.95 2.48 1.1 3.75 1.48 1.1.32 2.2.71 3.33.71 1.24-.03 2.62-.1 3.62-.85 1.02-.78 1.56-2.12 1.84-3.36.25-1-.07-2.06-.07-3.09-.04-.78-.64-1.8-.07-2.33.46-.43 1.24.03 1.84.17.81.22 1.52.78 2.34.92 1.06.15 2.23.25 3.22-.2.96-.5 1.6-1.5 2.16-2.42.4-.67.04-2.16.82-2.16.81 0 .42 1.6.81 2.3.57.96 1.17 2.06 2.2 2.45 1.56.64 3.37-.43 5.07-.4.64 0 1.45-.24 1.95.19.56.53.2 1.52.42 2.26.6 2.1.6 4.72 2.3 6.06 1.95 1.56 4.9.96 7.37 1.03.93 0 1.81-.35 2.7-.25.46.07.99.14 1.27.5.18.18.22.46.25.74.07.75-.18 1.5-.25 2.23-.07 1.03-.39 2.06-.24 3.05.2 1.2.6 2.55 1.55 3.4 1.03.92 2.56 1.2 3.94 1.31 1.17.08 2.34-.42 3.47-.63.92-.15 1.8-.5 2.73-.5.42 0 .92 0 1.24.25s.42.7.53 1.1c.18.85.04 1.7.07 2.55.04 1.13-.14 2.3.14 3.4.32 1.28.82 2.66 1.84 3.5 1.03.9 2.49 1.18 3.83 1.32 1.17.14 2.34-.21 3.5-.36.93-.1 1.85-.39 2.77-.35.46.04 1.07 0 1.35.35.35.36.14 1 .25 1.46.32 1.45.35 3.12 1.3 4.28.79 1 2.17 1.42 3.34 1.88.64.25 1.28.36 1.95.5.1.03.25.07.35.07" style="fill:#ff5;fill-opacity:1;fill-rule:nonzero;stroke:none"/><path d="M209.98 386.86c.81-.04 1.6-.6 1.87-1.38a2.1 2.1 0 0 0-.7-2.24L153 337.36a2.1 2.1 0 0 0-2.37-.04l-22.75 15.95c-.92.6-1.2 1.95-.57 2.83.6.89 1.99 1.1 2.84.46l21.57-15.13 56.98 44.97c.36.28.82.46 1.28.46" style="fill:#ff5;fill-opacity:1;fill-rule:nonzero;stroke:none"/><path d="M152.93 326.27v-63.89l-9.74 6.8-.32 63.32z" style="fill:#000;fill-opacity:1;fill-rule:nonzero;stroke:none"/><path d="m211.5 372.12-21.01-16.87-.29-54.42 21.3 14.49z" style="fill:#f55;fill-opacity:1;fill-rule:nonzero;stroke:none"/><path d="m190.2 356.17-.6-56.23m-5.31 52.02-.29-57.33m-26.64 34.61-.29-68.35" style="fill:none;stroke:#000;stroke-width:1.98425198px;stroke-linecap:round;stroke-linejoin:round;stroke-opacity:1;stroke-dasharray:none"/><path d="m119.52 284.56 36.39-24.23" style="fill:none;stroke:#55a;stroke-width:1.98425198px;stroke-linecap:round;stroke-linejoin:round;stroke-opacity:1;stroke-dasharray:none"/><path d="m157.4 270.25 26.32 26.86-26.5 25.65 26.78 27.5" style="fill:none;stroke:#000;stroke-width:1.98425198px;stroke-linecap:round;stroke-linejoin:round;stroke-opacity:1;stroke-dasharray:none"/><path d="m168.13 338.81 16.05-16.4-26.79-27.93 15.17-14.17" style="fill:none;stroke:#000;stroke-width:1.98425198px;stroke-linecap:round;stroke-linejoin:round;stroke-opacity:1;stroke-dasharray:none"/><path d="m170.96 328.57 4.93-5.28-4.93-5.81-5.1 5.28zm.14-27.67 4.3-4.71-4.86-4.93-4.32 4.6z" style="fill:none;stroke:#000;stroke-width:1.98425198px;stroke-linecap:round;stroke-linejoin:round;stroke-opacity:1;stroke-dasharray:none"/><path d="m183.12 342.32-4.9-5.35 5.15-5.42zm-25.19-28.02 5.24-5.47-5.32-5.17zm25.47.03-4.82-5.25 4.93-4.53zm-25.62-27.53 4.61-4.75-4.85-4.75z" style="fill:#000;fill-opacity:1;fill-rule:nonzero;stroke:#000;stroke-width:1.98425198px;stroke-linecap:round;stroke-linejoin:round;stroke-opacity:1;stroke-dasharray:none"/><path d="M227.06 410.5c7.08-3.55 14.17-7.06 21.22-10.64 5.07-2.55 10.2-5.03 15.2-7.76a325 325 0 0 0 21.22-12.4c6.45-4.18 12.48-8.93 18.75-13.43-4.15-5.53-8.19-11.12-12.4-16.62-3.58-4.64-7.48-9.07-10.95-13.78-3.23-4.36-6.13-8.96-9.18-13.43-2.48.71-4.89 1.74-7.44 2.13-5 .74-10.13.67-15.2.35-4.04-.25-8.04-1-12.01-1.77-4.29-.85-8.61-1.74-12.76-3.19a81 81 0 0 1-12.36-5.67 125 125 0 0 1-13.08-8.47c-4.53-3.3-9.1-6.62-13.07-10.6-3.87-3.85-6.95-8.42-10.28-12.75-3.61-4.75-6.84-9.81-10.6-14.49a95 95 0 0 0-8.1-9.18c-4.08-3.9-8.33-7.61-13.12-10.6-4.4-2.8-9.25-4.88-14.14-6.72-4.67-1.81-9.5-3.55-14.49-4.26-4.89-.7-9.88 0-14.84 0 2.72 5.57 5.63 10.99 8.14 16.62a239 239 0 0 1 8.47 21.58 193 193 0 0 1 5.67 20.87 227 227 0 0 1 3.2 21.9c.56 5.53.88 11.09 1.05 16.62.18 6.13.04 12.26 0 18.39-.07 5.77-.14 11.55-.35 17.32-.25 6.03-.7 12.02-1.06 18.04" style="fill:none;stroke:#55a;stroke-width:1.98425198px;stroke-linecap:round;stroke-linejoin:round;stroke-opacity:1;stroke-dasharray:none"/><path d="M30.01 149.99v360h270" style="fill:none;stroke:#55a;stroke-width:1.98425198px;stroke-linecap:butt;stroke-linejoin:miter;stroke-miterlimit:4;stroke-opacity:1;stroke-dasharray:none"/><path d="M187.94 269.47c-.68.07-1.42.67-2.84 1.7l-3.12 2.2-3.08 2.23c-3.86 2.3-2.8 2.59-.18 5.74l2.95 3.54 2.9 3.51c2.7 3.61 2.55 3.86 5.7.96l2.84-2.59 2.83-2.59c3.34-2.58 2.66-2.76.15-5.77l-2.63-3.16-2.65-3.15c-1.38-1.91-2.02-2.7-2.87-2.62m-.53 5.53c.67 0 1.45.24 1.94.74.32.35.43.89.43 1.35 0 .2-.28.5-.1.67.13.14.38-.18.6-.18.5.04 1.02.14 1.38.5.5.46.74 1.24.74 1.91 0 .71-.25 1.45-.74 1.95-.36.32-.89.4-1.38.43-.22.03-.47-.29-.6-.11-.18.14.1.39.1.6 0 .5-.1 1.03-.43 1.38-.5.5-1.27.75-1.94.75-.68 0-1.46-.25-1.95-.75-.32-.35-.43-.88-.46-1.38 0-.21.31-.46.17-.6-.17-.18-.46.14-.67.1-.5-.03-1-.1-1.35-.42a2.8 2.8 0 0 1-.74-1.95c0-.67.25-1.45.74-1.91.36-.36.85-.46 1.35-.5.21 0 .5.32.67.18.14-.18-.17-.46-.17-.67.03-.46.14-1 .46-1.35.5-.5 1.27-.74 1.95-.74m14.03 10.24c-.64.14-1.31.88-2.52 2.12l-2.7 2.7-2.65 2.69c-3.47 2.94-2.34 3.05.74 5.7l3.51 3.01 3.44 2.98c3.26 3.12 3.15 3.4 5.81 0l2.34-3.05 2.37-2.97c2.87-3.12 2.2-3.2-.81-5.74l-3.12-2.7-3.12-2.65c-1.7-1.67-2.48-2.34-3.3-2.1m.39 5.52c.7-.1 1.48 0 2.05.43.4.28.57.78.64 1.24.07.21-.18.53 0 .67s.35-.25.6-.25a2.2 2.2 0 0 1 1.42.22c.57.39.96 1.1 1.06 1.8.1.68 0 1.46-.42 2.02-.29.4-.82.57-1.28.68-.21.03-.5-.22-.64-.04-.1.18.22.4.25.6.04.46.04 1.03-.21 1.42-.4.57-1.1.96-1.8 1.06-.68.11-1.46 0-2.03-.42-.39-.28-.6-.78-.7-1.28-.04-.2.24-.5.06-.63-.17-.15-.39.2-.63.24-.46.04-1 .07-1.39-.2a2.7 2.7 0 0 1-1.06-1.78c-.1-.7 0-1.49.43-2.06.28-.39.78-.56 1.24-.67.21-.07.53.21.67.04.1-.18-.25-.4-.28-.6-.04-.5-.04-1.03.25-1.42.38-.57 1.1-.96 1.77-1.07m15.49 6.82c-.57.35-.96 1.27-1.74 2.83l-1.7 3.4-1.66 3.4c-2.38 3.87-1.24 3.62 2.51 5.18l4.26 1.73 4.21 1.74c4.08 1.91 4.08 2.23 5.5-1.84l1.27-3.62 1.31-3.58c1.74-3.9 1.06-3.72-2.58-5.2l-3.8-1.53-3.82-1.56c-2.13-1.02-3.05-1.45-3.76-.95m2.13 5.13c.6-.31 1.38-.46 2.05-.24.46.14.78.56 1.03.95.1.22-.04.57.18.64.2.1.28-.32.5-.42.42-.18.95-.36 1.41-.22a2.7 2.7 0 0 1 1.56 1.35c.35.6.46 1.42.25 2.05-.14.47-.57.78-1 1.03-.17.14-.56-.03-.6.22-.07.2.29.28.4.46.2.46.38.95.24 1.45a2.8 2.8 0 0 1-1.35 1.56c-.6.32-1.41.46-2.05.25-.46-.15-.82-.57-1.06-1-.11-.17.03-.56-.15-.63-.2-.08-.31.31-.53.42-.42.21-.92.4-1.38.25a2.9 2.9 0 0 1-1.84-3.44c.14-.46.57-.78 1-1.03.17-.1.56.04.63-.17s-.36-.32-.46-.5a2.2 2.2 0 0 1-.21-1.42c.2-.67.74-1.24 1.38-1.56m16.58 2.7c-.43.53-.57 1.52-.82 3.22l-.63 3.76-.6 3.75c-1.14 4.36-.15 3.8 3.93 4.18l4.57.43 4.57.43c4.43.63 4.5.92 4.68-3.37l.17-3.83.18-3.82c.53-4.22-.07-3.83-3.97-4.19l-4.1-.39-4.12-.35c-2.34-.35-3.33-.46-3.86.18m3.5 4.29c.5-.47 1.25-.86 1.92-.82.5 0 .92.28 1.28.64.14.14.14.53.35.53.25 0 .18-.39.36-.53.35-.32.81-.64 1.27-.64a2.6 2.6 0 0 1 1.91.82c.5.5.85 1.2.85 1.9 0 .47-.35.93-.67 1.28-.14.18-.53.15-.53.36s.39.18.53.35c.32.36.67.82.67 1.28 0 .7-.35 1.42-.85 1.91-.5.5-1.2.85-1.87.85a2 2 0 0 1-1.31-.67c-.18-.14-.11-.53-.36-.53-.21 0-.18.39-.35.53-.36.32-.78.64-1.28.67-.67 0-1.42-.35-1.88-.85a2.8 2.8 0 0 1-.85-1.91c0-.46.29-.92.6-1.28.18-.17.6-.1.57-.35 0-.21-.42-.18-.57-.36-.31-.35-.6-.78-.6-1.27-.03-.67.36-1.42.82-1.91M173.7 272.7c.63-.08 1.41-.68 2.83-1.67l3.08-2.23 3.12-2.2c3.86-2.3 2.76-2.62.18-5.78l-2.95-3.5-2.9-3.55c-2.7-3.58-2.55-3.86-5.7-.96l-2.84 2.63-2.83 2.55c-3.37 2.58-2.7 2.76-.15 5.77l2.63 3.16 2.65 3.15c1.38 1.91 2.02 2.73 2.87 2.62m.52-5.53a2.8 2.8 0 0 1-1.94-.75 2 2 0 0 1-.43-1.35c-.04-.2.25-.5.1-.63-.14-.18-.38.17-.6.14-.5-.04-1.02-.14-1.38-.46a2.8 2.8 0 0 1-.74-1.95c0-.67.25-1.45.74-1.95.36-.32.89-.39 1.38-.42.22 0 .46.28.6.14.15-.18-.14-.43-.1-.64 0-.5.1-1.03.43-1.38a2.8 2.8 0 0 1 1.94-.75c.68 0 1.46.25 1.92.75.35.35.46.88.5 1.38 0 .21-.33.46-.18.64.17.14.42-.14.67-.14.46.03 1 .1 1.35.42.5.5.74 1.28.74 1.95 0 .7-.25 1.45-.74 1.95-.36.32-.89.42-1.35.46-.25.03-.5-.32-.67-.14-.15.14.17.42.17.63-.03.5-.14 1-.5 1.35a2.7 2.7 0 0 1-1.9.75m-13.74-10.52c.63-.18 1.3-.92 2.55-2.12l2.66-2.73 2.69-2.7c3.43-2.9 2.3-3-.78-5.7l-3.47-2.98-3.48-3c-3.22-3.1-3.11-3.37-5.77.03l-2.34 3-2.37 3.02c-2.87 3.12-2.2 3.15.77 5.7l3.12 2.7 3.16 2.66c1.7 1.66 2.44 2.33 3.26 2.12m-.4-5.53a2.8 2.8 0 0 1-2.01-.42c-.4-.28-.57-.78-.68-1.28-.03-.2.22-.53.04-.63-.18-.15-.4.2-.6.24-.46.04-1.03.04-1.42-.24a2.7 2.7 0 0 1-1.06-1.78 2.8 2.8 0 0 1 .39-2.05c.28-.4.81-.53 1.3-.64.22-.07.5.21.65 0 .1-.18-.22-.35-.25-.57-.07-.5-.07-1.06.21-1.45.39-.57 1.1-.96 1.77-1.06s1.49 0 2.06.42c.39.29.56.82.67 1.28.03.21-.21.5-.04.64.18.14.4-.22.6-.22.5-.07 1.03-.07 1.42.18.57.4.96 1.14 1.07 1.8.1.68 0 1.5-.43 2.03-.28.39-.78.6-1.24.7-.21.04-.57-.24-.67-.06-.1.2.25.42.25.63.07.46.03 1-.22 1.42-.39.57-1.13.92-1.8 1.06m-16.73-8.07c.57-.4.96-1.28 1.74-2.84l1.7-3.4 1.66-3.44c2.34-3.82 1.24-3.58-2.51-5.14l-4.25-1.73-4.26-1.77c-4.03-1.92-4.03-2.2-5.45 1.87l-1.28 3.62-1.3 3.58c-1.74 3.86-1.07 3.68 2.58 5.17l3.79 1.56 3.83 1.52c2.12 1.07 3.04 1.46 3.75 1m-2.12-5.14c-.6.32-1.39.46-2.06.25-.46-.15-.78-.57-1.03-1-.1-.17.04-.56-.17-.63-.22-.08-.29.35-.5.42-.42.21-.96.4-1.42.25a2.9 2.9 0 0 1-1.84-3.44c.18-.46.6-.78 1.03-1.03.18-.1.53.04.6-.17s-.32-.29-.39-.5c-.21-.42-.39-.96-.28-1.42.21-.67.78-1.24 1.38-1.56.6-.31 1.38-.46 2.05-.24.46.14.82.56 1.07.99.1.18-.07.53.14.6s.32-.32.53-.39c.43-.21.92-.39 1.38-.25.68.18 1.24.75 1.6 1.35.32.6.46 1.42.24 2.06-.17.46-.56.81-.99 1.06-.17.1-.56-.07-.64.18-.07.17.36.28.43.5.21.42.35.91.25 1.4a3 3 0 0 1-1.38 1.57m-16.55-2.84c.42-.5.53-1.49.81-3.19l.6-3.75.6-3.76c1.14-4.4.15-3.82-3.92-4.21l-4.58-.43-4.53-.42c-4.43-.64-4.54-.93-4.71 3.4l-.15 3.82-.2 3.8c-.54 4.21.06 3.86 4 4.21l4.07.36 4.11.35c2.34.39 3.37.5 3.9-.18m-3.54-4.28c-.5.5-1.2.85-1.92.85-.46 0-.88-.32-1.24-.64-.18-.14-.18-.57-.39-.57s-.14.43-.32.57c-.35.32-.81.64-1.3.64-.68 0-1.42-.36-1.92-.85a2.7 2.7 0 0 1-.82-1.88c0-.5.32-.92.64-1.28.14-.18.53-.14.53-.35 0-.25-.39-.21-.53-.36a2.3 2.3 0 0 1-.67-1.3c0-.68.35-1.39.85-1.89s1.2-.85 1.91-.85c.46 0 .96.32 1.31.64.15.14.11.57.32.57s.21-.43.4-.57c.35-.32.74-.64 1.23-.64.71 0 1.42.36 1.92.85.46.47.85 1.2.81 1.88 0 .5-.28.92-.6 1.28-.14.18-.57.14-.57.35 0 .25.43.21.57.36.32.35.6.81.64 1.3a2.8 2.8 0 0 1-.85 1.89m140.13 75.36-1.56.32c-2.12.25-3 .43-3.33 1.2-.2.6-.1 1.53.07 3.27l.36 3.79.35 3.82c.07 4.5.78 3.72 4.4 3.05l4-.78 3.9-.7-1.91-3.3a3 3 0 0 1-.78.39c-.43.1-.89-.07-1.28-.29-.18-.1-.21-.5-.39-.42-.21.03-.1.42-.21.64-.25.39-.53.78-.96.88-.57.21-1.27.07-1.8-.28a3 3 0 0 1-1.18-1.67c-.1-.46.04-.95.22-1.38.07-.18.5-.25.42-.46-.07-.21-.42-.1-.6-.21-.35-.25-.7-.64-.81-1.1a3 3 0 0 1 .28-2.06c.32-.56.85-1.13 1.42-1.27.42-.14.88.07 1.24.28.17.1.24.5.46.46l.1-.1zM99.35 234.35l1.56-.31c2.13-.25 3.02-.43 3.33-1.2.25-.61.11-1.57-.03-3.27l-.4-3.83-.35-3.79c-.03-4.5-.77-3.72-4.35-3.04l-4.04.78-3.9.7 1.95 3.3c.21-.18.5-.32.74-.4.43-.1.89.08 1.28.3.17.1.21.45.42.42.18-.04.07-.43.18-.64.25-.39.53-.78.96-.92a2.2 2.2 0 0 1 1.8.32 3 3 0 0 1 1.2 1.63c.11.5-.03.95-.24 1.41-.07.18-.5.25-.42.47.07.2.42.1.6.2.35.26.7.65.81 1.1.18.64.04 1.46-.28 2.03-.28.6-.82 1.17-1.42 1.3-.42.11-.85-.06-1.24-.28-.18-.1-.25-.5-.46-.46-.03 0-.07.07-.1.11zM95 100.98c2.02 4 7.01 10.03 12 10.03 9 0 13.01-8 13.01-18 0-10.03-4-19.03-13-19.03-5 0-8.01 5.04-11.02 8.01-1 1-1.99 0-1-.99 3.02-3.01 8.01-10.98 8.01-18 0-8-5-18-13-18S77 55 77 63c0 7.02 5 14.99 8 18 1 1 0 1.98-.99 1C81 79.01 78 73.97 73 73.97c-9 0-13 9-13 19.03 0 10 4 18 13 18 5 0 10-6.02 12.01-10.03 1-.99 1 0 1 1.03-1 7.97-1 10-1.99 15.98-1.03 6.03-4 17.01-4 17.01 5-1.98 14.99-1.98 19.98 0 0 0-2.97-10.98-4-17-1-6-1-8.02-1.99-15.99 0-1.03 0-2.02 1-1.03M32.5 118c.98 2.01 3.5 4.99 6.02 4.99 4.5 0 6.48-4 6.48-9s-1.98-9.5-6.48-9.5c-2.52 0-4 2.52-5.53 4-.5.5-1 0-.5-.49 1.53-1.49 4-5.5 4-9 0-4-2.47-9-6.48-9s-6.52 5-6.52 9c0 3.5 2.52 7.51 4 9 .5.5 0 1-.49.5-1.49-1.5-3.01-4-5.5-4-4.5 0-6.51 4.5-6.51 9.49s2.02 9 6.52 9c2.48 0 5-2.98 5.99-5 .5-.5.5 0 .5.5-.5 4-.5 5-1 8-.5 3.02-1.98 8.51-1.98 8.51 2.48-1 7.47-1 9.99 0 0 0-1.53-5.5-2.02-8.5-.5-3.02-.5-4-1-8.01 0-.5 0-1 .5-.5M265 439.02c-2.02-4-7.01-10.03-12-10.03-9 0-13.01 8-13.01 18 0 10.03 4 19.03 13 19.03 5 0 8.01-5.04 11.02-8.01 1-1 1.99 0 1 .99-3.02 3.01-8.01 10.98-8.01 18 0 8 5 18 13 18s13-10 13-18c0-7.02-5-14.99-8-18-1-1 0-1.98.99-1 3.01 2.98 6.02 8.02 11.02 8.02 9 0 13-9 13-19.03 0-10-4-18-13-18-5 0-10 6.02-12.01 10.03-1 .99-1 0-1-1.03 1-7.97 1-10 1.99-15.98 1.03-6.03 4-17.01 4-17.01-5 1.98-14.99 1.98-19.98 0 0 0 2.97 10.98 4 17 1 6 1 8.02 1.99 15.99 0 1.03 0 2.02-1 1.03M327.5 422c-.98-2.01-3.5-4.99-6.02-4.99-4.5 0-6.48 4-6.48 9s1.98 9.5 6.48 9.5c2.52 0 4-2.52 5.53-4 .5-.5 1 0 .5.49-1.53 1.49-4 5.5-4 9 0 4 2.47 9 6.48 9s6.52-5 6.52-9c0-3.5-2.52-7.51-4-9-.5-.5 0-1 .49-.5 1.49 1.5 3.01 4 5.5 4 4.5 0 6.51-4.5 6.51-9.49s-2.02-9-6.52-9c-2.48 0-5 2.98-5.99 5-.5.5-.5 0-.5-.5.5-4 .5-5 1-8 .5-3.02 1.98-8.51 1.98-8.51-2.48 1-7.47 1-9.99 0 0 0 1.53 5.5 2.02 8.5.5 3.02.5 4 1 8.01 0 .5 0 1-.5.5" style="fill:#000;fill-opacity:1;fill-rule:nonzero;stroke:none"/></svg>